<?xml version="1.0" encoding="UTF-8" standalone="no"?>
<svg
   xmlns:dc="http://purl.org/dc/elements/1.1/"
   xmlns:cc="http://creativecommons.org/ns#"
   xmlns:rdf="http://www.w3.org/1999/02/22-rdf-syntax-ns#"
   xmlns:svg="http://www.w3.org/2000/svg"
   xmlns="http://www.w3.org/2000/svg"
   viewBox="0 0 4946.6665 4946.6665"
   height="4946.6665"
   width="4946.6665"
   xml:space="preserve"
   id="svg2"
   version="1.1"><metadata
     id="metadata8"><rdf:RDF><cc:Work
         rdf:about=""><dc:format>image/svg+xml</dc:format><dc:type
           rdf:resource="http://purl.org/dc/dcmitype/StillImage" /></cc:Work></rdf:RDF></metadata><defs
     id="defs6"><clipPath
       id="clipPath24"
       clipPathUnits="userSpaceOnUse"><path
         id="path22"
         d="m 18752.6,4550 c -1735.2,0 -3128.5,242.1 -3850.3,376.4 -2794.4,520.1 -5153.23,887 -7179.91,2718.1 -287.83,260 -556.93,537.9 -807.4,831.3 H 29035.8 c -2.1,-2.2 -4.2,-4.4 -6.3,-6.6 -733.5,-756 -1389.9,-1200.5 -1892.3,-1536 C 24278.8,5024.6 21181.1,4550 18752.6,4550 M 6379.98,9165.3 C 3952.82,12608.6 3686.27,17749 5096.15,22118.2 c 224.6,-997.5 606.09,-1882.8 1040.03,-2641.7 l 243.8,-10311.2 m 25064.32,3134.5 151.8,10481.3 c 0,236.3 -268.4,689.4 -761.9,689.4 -18.3,0 -37,-0.6 -56,-1.9 l -920.5,23.8 c -166.7,3650.3 -3157,6558.3 -6941.1,6558.3 -91.8,0 -183.4,-1.7 -274.5,-5.1 -90.6,3.4 -181.6,5.1 -273.1,5.1 -3641.2,0 -6754.8,-2673.3 -7338.3,-6174.6 l -1092.3,28.3 c -875.3,1762.9 -2125.1,3631.5 -3889.9,5530.2 1600.8,1362.9 3752.8,2665.8 6356.7,3006.2 137.3,17.9 239.7,28.1 329.5,37.6 219.3,23.3 727,71.6 1433.5,71.6 2090.6,0 5925.3,-422.9 9205.4,-3170.9 628.1,-526.3 1639.1,-1475.6 2576.5,-2923.4 2596.2,-4009.6 3232.3,-9685.5 1494.2,-14155.9 m -2988.4,11228.9 -940,24.3 c -56.8,549.8 -213.8,1068.6 -453,1538.2 712.8,-214.1 1253.4,-811.9 1393,-1562.5 m -10014.6,259.1 -1716,44.4 c 359.9,609.6 1003.5,1046.4 1748.9,1133.7 126.2,-15 248.9,-40.3 367.1,-74.9 -177.5,-346 -313.2,-715.8 -400,-1103.2 m -11508.49,263.9 c -148.16,418.7 -290.46,838.9 -420.26,1249.7 111.96,190.1 227.92,376.9 347.55,559.7 48.18,73.6 137.7,208.2 266.93,389.8 -5.81,-694.5 12.1,-1424.8 64.56,-2172.1 -4.32,0.1 -8.66,0.1 -12.97,0.1 -83.31,0 -165.72,-9.3 -245.81,-27.2 M 20734.6,26867 c -3,45.9 -4.5,92.2 -4.5,138.9 0,1106.4 843.1,2022.4 1921.4,2156.9 985.3,-123.6 1754.2,-906.7 1849.7,-1888.6 -441.5,143.5 -915.1,221.1 -1409.2,221.1 -19,0 -38.1,-0.2 -57.1,-0.4 -832,-10 -1617.7,-237.5 -2300.3,-627.9" /></clipPath><linearGradient
       id="linearGradient32"
       spreadMethod="pad"
       gradientTransform="matrix(-19869.5,21151.4,21151.4,19869.5,34995.3,-16.5991)"
       gradientUnits="userSpaceOnUse"
       y2="0"
       x2="1"
       y1="0"
       x1="0"><stop
         id="stop28"
         offset="0"
         style="stop-opacity:1;stop-color:#e8d7ff" /><stop
         id="stop30"
         offset="1"
         style="stop-opacity:1;stop-color:#fddff8" /></linearGradient><clipPath
       id="clipPath42"
       clipPathUnits="userSpaceOnUse"><path
         id="path40"
         d="m 6136.18,19476.5 c -433.94,758.9 -815.43,1644.2 -1040.03,2641.7 -17.32,77 -33.76,154.8 -49.17,233 -569.05,2890.4 253.44,5188.4 651.5,6074.7 15.33,34.1 45.25,49.5 75.1,49.5 42.4,0 84.68,-31.2 84.8,-84.3 1.94,-769 274.77,-1889.2 654.17,-3089.7 129.8,-410.8 272.1,-831 420.26,-1249.7 -205.8,-46.1 -396.41,-149.5 -548.33,-300.9 -217.95,-217.3 -337.21,-514.3 -329.93,-821.8 l 4.53,-191.8 -14.68,44.8 c -138.26,404.4 -241.95,819.8 -324.11,1238.8 -83.78,419 -130.2,845.4 -141.94,1272.7 -3.27,53.4 -0.84,106.9 -1.72,160.3 l -0.38,160.4 6.34,160.3 3.21,80.2 c 1.6,26.7 4.16,53.3 6.2,80 4.7,53.3 7.76,106.8 13.82,159.9 l 19.44,159.4 c 16.33,105.7 31.84,212 58.92,315.7 l -0.94,1.8 -1.81,-1 c -59.92,-206.4 -93.94,-419.6 -115.94,-633.4 -2.9,-26.7 -6.32,-53.4 -8.8,-80.2 l -5.81,-80.4 -11.54,-160.9 -4.81,-161.3 c -1.1,-53.8 -4.48,-107.7 -2.28,-161.4 3.05,-430.3 41.06,-861 116.88,-1285 14.6,-106.9 40.39,-211.5 62.19,-317 l 33.8,-158 c 5.99,-26.2 10.47,-52.9 17.7,-78.8 l 20.71,-78.1 82.85,-312.3 c 12.66,-52.4 30.79,-103.1 46.92,-154.5 l 49.51,-153.8 49.53,-153.7 25,-76.9 28.49,-75.5 0.06,-0.2 70.29,-2972.6" /></clipPath><linearGradient
       id="linearGradient50"
       spreadMethod="pad"
       gradientTransform="matrix(-2935.94,-1176.97,1176.97,-2935.94,8114.98,22779.5)"
       gradientUnits="userSpaceOnUse"
       y2="0"
       x2="1"
       y1="0"
       x1="0"><stop
         id="stop46"
         offset="0"
         style="stop-opacity:1;stop-color:#cb236d" /><stop
         id="stop48"
         offset="1"
         style="stop-opacity:1;stop-color:#4c246d" /></linearGradient><clipPath
       id="clipPath60"
       clipPathUnits="userSpaceOnUse"><path
         id="path58"
         d="m 6065.89,22449.1 -0.06,0.2 -28.49,75.5 -25,76.9 -49.53,153.7 -49.51,153.8 c -16.13,51.4 -34.26,102.1 -46.92,154.5 l -82.85,312.3 -20.71,78.1 c -7.23,25.9 -11.71,52.6 -17.7,78.8 l -33.8,158 c -21.8,105.5 -47.59,210.1 -62.19,317 -75.82,424 -113.83,854.7 -116.88,1285 -2.2,53.7 1.18,107.6 2.28,161.4 l 4.81,161.3 11.54,160.9 5.81,80.4 c 2.48,26.8 5.9,53.5 8.8,80.2 22,213.8 56.02,427 115.94,633.4 l 1.81,1 0.94,-1.8 c -27.08,-103.7 -42.59,-210 -58.92,-315.7 l -19.44,-159.4 c -6.06,-53.1 -9.12,-106.6 -13.82,-159.9 -2.04,-26.7 -4.6,-53.3 -6.2,-80 l -3.21,-80.2 -6.34,-160.3 0.38,-160.4 c 0.88,-53.4 -1.55,-106.9 1.72,-160.3 11.74,-427.3 58.16,-853.7 141.94,-1272.7 82.16,-419 185.85,-834.4 324.11,-1238.8 l 14.68,-44.8 6.81,-288.1" /></clipPath><linearGradient
       id="linearGradient68"
       spreadMethod="pad"
       gradientTransform="matrix(-2935.94,-1176.97,1176.97,-2935.94,8114.98,22779.5)"
       gradientUnits="userSpaceOnUse"
       y2="0"
       x2="1"
       y1="0"
       x1="0"><stop
         id="stop64"
         offset="0"
         style="stop-opacity:1;stop-color:#e286af" /><stop
         id="stop66"
         offset="1"
         style="stop-opacity:1;stop-color:#9d87af" /></linearGradient><clipPath
       id="clipPath78"
       clipPathUnits="userSpaceOnUse"><path
         id="path76"
         d="m 13938.4,23904.4 -4451.6,115.1 c -88.86,400.2 -175.03,800.8 -258.72,1202.1 -144.87,693.2 -282.58,1387.9 -413.19,2083.9 -130.29,696 -255.15,1393.4 -367.29,2092.2 l -0.02,0.2 c -2.24,14.4 -14.68,24.7 -28.84,24.7 -1.5,0 -3.01,-0.1 -4.53,-0.4 -15.95,-2.5 -26.86,-17.4 -24.38,-33.3 109.06,-700.7 230.68,-1398.6 357.8,-2095.9 127.45,-697.1 262.01,-1392.9 403.75,-2087.2 80.49,-395.2 163.39,-789.9 248.9,-1184 l -2192.49,56.7 c -5.41,0.1 -10.8,0.3 -16.2,0.3 -52.46,747.3 -70.37,1477.6 -64.56,2172.1 19.99,2388.6 320.1,4354.7 457.13,5132.6 21.21,120.4 113.41,205.7 198.02,205.7 28.22,0 55.6,-9.5 79.21,-30.3 805.03,-709.7 1531.44,-1418.9 2187.11,-2124.3 1764.8,-1898.7 3014.6,-3767.3 3889.9,-5530.2" /></clipPath><linearGradient
       id="linearGradient86"
       spreadMethod="pad"
       gradientTransform="matrix(5540.03,14038,10380.2,-4096.7,8727.03,15000.8)"
       gradientUnits="userSpaceOnUse"
       y2="0"
       x2="1"
       y1="0"
       x1="0"><stop
         id="stop82"
         offset="0"
         style="stop-opacity:1;stop-color:#cb236d" /><stop
         id="stop84"
         offset="1"
         style="stop-opacity:1;stop-color:#4c246d" /></linearGradient><clipPath
       id="clipPath96"
       clipPathUnits="userSpaceOnUse"><path
         id="path94"
         d="m 9486.8,24019.5 -86.52,2.3 c -85.51,394.1 -168.41,788.8 -248.9,1184 -141.74,694.3 -276.3,1390.1 -403.75,2087.2 -127.12,697.3 -248.74,1395.2 -357.8,2095.9 -2.48,15.9 8.43,30.8 24.38,33.3 1.52,0.3 3.03,0.4 4.53,0.4 14.16,0 26.6,-10.3 28.84,-24.7 l 0.02,-0.2 c 112.14,-698.8 237,-1396.2 367.29,-2092.2 130.61,-696 268.32,-1390.7 413.19,-2083.9 83.69,-401.3 169.86,-801.9 258.72,-1202.1" /></clipPath><linearGradient
       id="linearGradient104"
       spreadMethod="pad"
       gradientTransform="matrix(5540.03,14038,10380.2,-4096.7,8727.03,15000.8)"
       gradientUnits="userSpaceOnUse"
       y2="0"
       x2="1"
       y1="0"
       x1="0"><stop
         id="stop100"
         offset="0"
         style="stop-opacity:1;stop-color:#e286af" /><stop
         id="stop102"
         offset="1"
         style="stop-opacity:1;stop-color:#9d87af" /></linearGradient><clipPath
       id="clipPath114"
       clipPathUnits="userSpaceOnUse"><path
         id="path112"
         d="m 29006.1,23514.5 -550.2,14.2 c -139.6,750.6 -680.2,1348.4 -1393,1562.5 -14.5,28.6 -29.3,56.8 -44.5,85 2.8,0 5.5,0 8.3,0 995,0 1809.3,-709.6 1979.4,-1661.7 M 15576,23862 l -545.3,14.1 c 583.5,3501.3 3697.1,6174.6 7338.3,6174.6 91.5,0 182.5,-1.7 273.1,-5.1 -3527,-130.4 -6503.2,-2763.7 -7066.1,-6183.6 m 3265.3,1029 c -118.2,34.6 -240.9,59.9 -367.1,74.9 72.3,8.5 145.6,13.7 219.6,15.4 18.5,0.4 37,0.6 55.3,0.6 46.4,0 92.4,-1.3 138,-4 -15.6,-28.8 -30.8,-57.8 -45.8,-86.9 m 6217.5,2159.2 c -179.3,86.5 -365.3,161.5 -557.6,224 -95.5,981.9 -864.4,1765 -1849.7,1888.6 86.9,10.8 175.4,16.6 265.1,16.9 3,0 6.1,0 9.2,0 1184.2,0 2133,-943.8 2133,-2112.2 0,-5.8 0,-11.5 0,-17.3" /></clipPath><linearGradient
       id="linearGradient122"
       spreadMethod="pad"
       gradientTransform="matrix(-7456.05,6695.22,6695.22,7456.05,27763,17860.3)"
       gradientUnits="userSpaceOnUse"
       y2="0"
       x2="1"
       y1="0"
       x1="0"><stop
         id="stop118"
         offset="0"
         style="stop-opacity:1;stop-color:#cb236d" /><stop
         id="stop120"
         offset="1"
         style="stop-opacity:1;stop-color:#4c246d" /></linearGradient><clipPath
       id="clipPath132"
       clipPathUnits="userSpaceOnUse"><path
         id="path130"
         d="m 26162.4,23065 c 0,-2074.3 -1681.5,-3842.7 -3793.4,-3951.8 -2155,-111.3 -3934.4,1540.9 -3934.4,3692.3 0,2151.4 1779.4,3923.1 3934.4,3956.6 2111.9,32.7 3793.4,-1622.7 3793.4,-3697.1" /></clipPath><linearGradient
       id="linearGradient142"
       spreadMethod="pad"
       gradientTransform="matrix(3628.14,-10762.1,-10762.1,-3628.14,21243.5,26061.8)"
       gradientUnits="userSpaceOnUse"
       y2="0"
       x2="1"
       y1="0"
       x1="0"><stop
         id="stop136"
         offset="0"
         style="stop-opacity:1;stop-color:#26264f" /><stop
         id="stop138"
         offset="0.003597"
         style="stop-opacity:1;stop-color:#26264f" /><stop
         id="stop140"
         offset="1"
         style="stop-opacity:1;stop-color:#444b8c" /></linearGradient><clipPath
       id="clipPath152"
       clipPathUnits="userSpaceOnUse"><path
         id="path150"
         d="m 27515.9,23553 -721.5,18.7 c -72.1,532.5 -256.4,1027.7 -529.4,1461.6 222.8,86.5 462.7,136.5 712.5,142.4 13.6,0.3 27.4,0.5 40.9,0.5 15.2,-28.2 30,-56.4 44.5,-85 239.2,-469.6 396.2,-988.4 453,-1538.2 m -8293.8,214.6 -780.8,20.2 c 86.8,387.4 222.5,757.2 400,1103.2 15,29.1 30.2,58.1 45.8,86.9 271.8,-16.1 529.3,-79.6 763.9,-182.2 -189.2,-317.6 -335,-663.2 -428.9,-1028.1 m 1703.1,2349.8 c -106.9,229.8 -173.4,482.6 -190.6,749.6 682.6,390.4 1468.3,617.9 2300.3,627.9 19,0.2 38.1,0.4 57.1,0.4 494.1,0 967.7,-77.6 1409.2,-221.1 192.3,-62.5 378.3,-137.5 557.6,-224 -2.2,-262.5 -52.2,-515 -141.9,-748.7 -536.5,294 -1156.3,461 -1820.4,461 -20.4,0 -41.1,-0.1 -61.6,-0.4 -773.2,-12 -1498,-247.8 -2109.7,-644.7" /></clipPath><linearGradient
       id="linearGradient162"
       spreadMethod="pad"
       gradientTransform="matrix(4323.72,-12825.4,-12825.4,-4323.72,21677.4,26660.3)"
       gradientUnits="userSpaceOnUse"
       y2="0"
       x2="1"
       y1="0"
       x1="0"><stop
         id="stop156"
         offset="0"
         style="stop-opacity:1;stop-color:#444b8c" /><stop
         id="stop158"
         offset="0.996403"
         style="stop-opacity:1;stop-color:#26264f" /><stop
         id="stop160"
         offset="1"
         style="stop-opacity:1;stop-color:#26264f" /></linearGradient><clipPath
       id="clipPath172"
       clipPathUnits="userSpaceOnUse"><path
         id="path170"
         d="m 26794.4,23571.7 -1830.4,47.4 c 192.8,647.2 680.1,1172.9 1301,1414.2 273,-433.9 457.3,-929.1 529.4,-1461.6 m -6055.7,156.7 -1516.6,39.2 c 93.9,364.9 239.7,710.5 428.9,1028.1 485.9,-212.5 873.6,-592.6 1087.7,-1067.3 m 2123.6,1165.2 c -858.9,0 -1599.4,497.5 -1937.1,1223.8 611.7,396.9 1336.5,632.7 2109.7,644.7 20.5,0.3 41.2,0.4 61.6,0.4 664.1,0 1283.9,-167 1820.4,-461 -308.1,-802.2 -1084.5,-1384.9 -2000.3,-1407.2 -18.1,-0.5 -36.3,-0.7 -54.3,-0.7" /></clipPath><linearGradient
       id="linearGradient182"
       spreadMethod="pad"
       gradientTransform="matrix(3628.14,-10762.1,-10762.1,-3628.14,21909.5,26061.8)"
       gradientUnits="userSpaceOnUse"
       y2="0"
       x2="1"
       y1="0"
       x1="0"><stop
         id="stop176"
         offset="0"
         style="stop-opacity:1;stop-color:#26264f" /><stop
         id="stop178"
         offset="0.003597"
         style="stop-opacity:1;stop-color:#26264f" /><stop
         id="stop180"
         offset="1"
         style="stop-opacity:1;stop-color:#444b8c" /></linearGradient><clipPath
       id="clipPath192"
       clipPathUnits="userSpaceOnUse"><path
         id="path190"
         d="m 29857.7,23492.4 -851.6,22.1 c -170.1,952.1 -984.4,1661.7 -1979.4,1661.7 -2.8,0 -5.5,0 -8.3,0 -13.5,0 -27.3,-0.2 -40.9,-0.5 -249.8,-5.9 -489.7,-55.9 -712.5,-142.4 -620.9,-241.3 -1108.2,-767 -1301,-1414.2 l -4225.3,109.3 c -214.1,474.7 -601.8,854.8 -1087.7,1067.3 -234.6,102.6 -492.1,166.1 -763.9,182.2 -45.6,2.7 -91.6,4 -138,4 -18.3,0 -36.8,-0.2 -55.3,-0.6 -74,-1.7 -147.3,-6.9 -219.6,-15.4 -745.4,-87.3 -1389,-524.1 -1748.9,-1133.7 L 15576,23862 c 562.9,3419.9 3539.1,6053.2 7066.1,6183.6 91.1,3.4 182.7,5.1 274.5,5.1 3784.1,0 6774.4,-2908 6941.1,-6558.3 m -8932.5,2625 c 337.7,-726.3 1078.2,-1223.8 1937.1,-1223.8 18,0 36.2,0.2 54.3,0.7 915.8,22.3 1692.2,605 2000.3,1407.2 89.7,233.7 139.7,486.2 141.9,748.7 0,5.8 0,11.5 0,17.3 0,1168.4 -948.8,2112.2 -2133,2112.2 -3.1,0 -6.2,0 -9.2,0 -89.7,-0.3 -178.2,-6.1 -265.1,-16.9 -1078.3,-134.5 -1921.4,-1050.5 -1921.4,-2156.9 0,-46.7 1.5,-93 4.5,-138.9 17.2,-267 83.7,-519.8 190.6,-749.6" /></clipPath><linearGradient
       id="linearGradient200"
       spreadMethod="pad"
       gradientTransform="matrix(6751.12,-20025.7,-20025.7,-6751.12,20708,28747.3)"
       gradientUnits="userSpaceOnUse"
       y2="0"
       x2="1"
       y1="0"
       x1="0"><stop
         id="stop196"
         offset="0"
         style="stop-opacity:1;stop-color:#cb236d" /><stop
         id="stop198"
         offset="1"
         style="stop-opacity:1;stop-color:#4c246d" /></linearGradient><clipPath
       id="clipPath210"
       clipPathUnits="userSpaceOnUse"><path
         id="path208"
         d="M 30949.4,8475.8 H 6831.75 c -245.29,0 -446,200.5 -446,445.6 l -5.77,243.9 -243.8,10311.2 -70.29,2972.6 -6.81,288.1 -4.53,191.8 c -7.28,307.5 111.98,604.5 329.93,821.8 151.92,151.4 342.53,254.8 548.33,300.9 80.09,17.9 162.5,27.2 245.81,27.2 4.31,0 8.65,0 12.97,-0.1 5.4,0 10.79,-0.2 16.2,-0.3 l 2192.49,-56.7 86.52,-2.3 4451.6,-115.1 1092.3,-28.3 545.3,-14.1 1149.3,-29.8 1716,-44.4 780.8,-20.2 1516.6,-39.2 4225.3,-109.3 1830.4,-47.4 721.5,-18.7 940,-24.3 550.2,-14.2 851.6,-22.1 920.5,-23.8 c 19,1.3 37.7,1.9 56,1.9 493.5,0 761.9,-453.1 761.9,-689.4 l -151.8,-10481.3 -48.9,-3378.4 c 0,-245.1 -200.7,-445.6 -446,-445.6 m -581.6,451.1 v 0 c 232,0 421.9,189.9 421.9,421.9 l 189.4,12582 c -21.7,736.2 -649.9,1013.9 -1054.6,1013.9 -11.5,0 -22.8,-0.2 -33.9,-0.7 l -22590.12,606.1 c -7.05,0.2 -14.12,0.3 -21.15,0.3 -208.68,0 -409.12,-82.8 -557.27,-230.6 -153.16,-152.7 -237.38,-361.8 -231.95,-578 l 335.96,-13393 c 0,-197.8 138,-365 322.47,-410 v -11.9 H 30367.8" /></clipPath><linearGradient
       id="linearGradient218"
       spreadMethod="pad"
       gradientTransform="matrix(-5696.06,17088.2,-17088.2,-5696.06,21093.4,9541.3)"
       gradientUnits="userSpaceOnUse"
       y2="0"
       x2="1"
       y1="0"
       x1="0"><stop
         id="stop214"
         offset="0"
         style="stop-opacity:1;stop-color:#2b3582" /><stop
         id="stop216"
         offset="1"
         style="stop-opacity:1;stop-color:#150e42" /></linearGradient><clipPath
       id="clipPath228"
       clipPathUnits="userSpaceOnUse"><path
         id="path226"
         d="m 30367.8,8926.9 v 0 l -4.7,12331.4 c -0.2,605.9 -483.2,1101.3 -1088.9,1117.1 L 8313.26,22920 c -10.09,0.2 -20.05,0.4 -30.09,0.4 -624.62,0 -1134.63,-506.8 -1134.63,-1135.3 V 8938.8 c -184.47,45 -322.47,212.2 -322.47,410 l -335.96,13393 c -5.43,216.2 78.79,425.3 231.95,578 148.15,147.8 348.59,230.6 557.27,230.6 7.03,0 14.1,-0.1 21.15,-0.3 L 29890.6,22944 c 11.1,0.5 22.4,0.7 33.9,0.7 404.7,0 1032.9,-277.7 1054.6,-1013.9 l -189.4,-12582 c 0,-232 -189.9,-421.9 -421.9,-421.9" /></clipPath><linearGradient
       id="linearGradient236"
       spreadMethod="pad"
       gradientTransform="matrix(34736.9,28562.3,28562.3,-34736.9,6868.95,6463.4)"
       gradientUnits="userSpaceOnUse"
       y2="0"
       x2="1"
       y1="0"
       x1="0"><stop
         id="stop232"
         offset="0"
         style="stop-opacity:1;stop-color:#53d8ff" /><stop
         id="stop234"
         offset="1"
         style="stop-opacity:1;stop-color:#3840f7" /></linearGradient><clipPath
       id="clipPath254"
       clipPathUnits="userSpaceOnUse"><path
         id="path252"
         d="M 4485.76,7325.3 H 32806.4 c 31.1,0 56.6,25.4 56.6,56.5 v 1104.7 c 0,31.1 -25.5,56.5 -56.6,56.5 H 4485.76 c -31.09,0 -56.54,-25.4 -56.54,-56.5 V 7381.8 c 0,-31.1 25.45,-56.5 56.54,-56.5 z" /></clipPath><linearGradient
       id="linearGradient262"
       spreadMethod="pad"
       gradientTransform="matrix(-519.746,14553,14553,519.746,18658.7,7580.4)"
       gradientUnits="userSpaceOnUse"
       y2="0"
       x2="1"
       y1="0"
       x1="0"><stop
         id="stop258"
         offset="0"
         style="stop-opacity:1;stop-color:#2b3582" /><stop
         id="stop260"
         offset="1"
         style="stop-opacity:1;stop-color:#150e42" /></linearGradient><clipPath
       id="clipPath272"
       clipPathUnits="userSpaceOnUse"><path
         id="path270"
         d="M 30367.8,8926.9 H 7148.54 v 11.9 c 31.93,-7.8 65.23,-11.9 99.46,-11.9 h 23119.8" /></clipPath><linearGradient
       id="linearGradient280"
       spreadMethod="pad"
       gradientTransform="matrix(-5696.06,17088.2,-17088.2,-5696.06,21093.4,9541.3)"
       gradientUnits="userSpaceOnUse"
       y2="0"
       x2="1"
       y1="0"
       x1="0"><stop
         id="stop276"
         offset="0"
         style="stop-opacity:1;stop-color:#58609c" /><stop
         id="stop278"
         offset="1"
         style="stop-opacity:1;stop-color:#47416a" /></linearGradient><clipPath
       id="clipPath290"
       clipPathUnits="userSpaceOnUse"><path
         id="path288"
         d="M 30367.8,8926.9 H 7248 c -34.23,0 -67.53,4.1 -99.46,11.9 v 12846.3 c 0,628.5 510.01,1135.3 1134.63,1135.3 10.04,0 20,-0.2 30.09,-0.4 l 20960.94,-544.6 c 605.7,-15.8 1088.7,-511.2 1088.9,-1117.1 l 4.7,-12331.4 M 7831.22,10104.6 c -102.37,0 -182.59,-88.4 -172.36,-190.5 l 9.69,-96.7 c 8.87,-88.5 83.4,-156 172.4,-156 h 9364.45 c 95.7,0 173.3,77.6 173.3,173.3 0,95 -76.5,172.3 -171.5,173.3 l -9374.15,96.6 c -0.61,0 -1.22,0 -1.83,0 M 24629.8,9924.7 c -31.6,0 -56.4,-36.5 -53.2,-78.7 l 2.9,-40 c 2.8,-36.6 25.8,-64.4 53.3,-64.4 h 2893.5 c 29.5,0 53.5,32 53.5,71.6 0,39.2 -23.6,71.2 -53,71.6 l -2896.4,39.9 c -0.2,0 -0.4,0 -0.6,0 m 103.1,311.8 c -50.6,0 -90.2,-27.3 -85.1,-58.9 l 4.8,-29.8 c 4.3,-27.4 41.1,-48.2 85.1,-48.2 H 29363 c 47.2,0 85.5,23.9 85.5,53.5 0,29.4 -37.7,53.2 -84.7,53.5 l -4630,29.9 c -0.3,0 -0.6,0 -0.9,0 m -16901.68,800.7 c -102.37,0 -182.59,-88.4 -172.36,-190.6 l 9.69,-96.6 c 8.87,-88.5 83.4,-156 172.4,-156 h 9364.45 c 95.7,0 173.3,77.6 173.3,173.3 0,95 -76.5,172.3 -171.5,173.2 l -9374.15,96.7 c -0.61,0 -1.22,0 -1.83,0 m 332.8,975 c -163.14,0 -290.99,-88.4 -274.68,-190.5 l 15.45,-96.7 c 14.14,-88.5 132.91,-155.9 274.76,-155.9 H 23104.1 c 152.5,0 276.1,77.5 276.1,173.2 0,95 -121.9,172.3 -273.3,173.3 l -14939.94,96.6 c -0.98,0 -1.97,0 -2.94,0 m 16512.38,2042.3 c -29.2,0 -52.1,-33.8 -49.2,-72.7 l 2.8,-36.9 c 2.5,-33.8 23.8,-59.6 49.2,-59.6 h 2671.9 c 27.3,0 49.5,29.7 49.5,66.2 0,36.2 -21.8,65.7 -48.9,66.1 l -2674.8,36.9 c -0.2,0 -0.3,0 -0.5,0 m 95.2,287.9 c -46.7,0 -83.3,-25.2 -78.6,-54.4 l 4.4,-27.6 c 4.1,-25.2 38,-44.5 78.6,-44.5 h 4271.2 c 43.7,0 79.1,22.2 79.1,49.5 0,27.1 -34.9,49.1 -78.2,49.4 l -4275.7,27.6 c -0.2,0 -0.5,0 -0.8,0 m -143.5,3835.5 c -29.2,0 -52.1,-33.8 -49.2,-72.7 l 2.8,-36.9 c 2.6,-33.8 23.8,-59.6 49.2,-59.6 h 2672 c 27.3,0 49.4,29.6 49.4,66.2 0,36.2 -21.8,65.7 -48.9,66.1 l -2674.7,36.9 c -0.2,0 -0.4,0 -0.6,0 m 95.2,287.9 c -46.6,0 -83.3,-25.2 -78.6,-54.4 l 4.4,-27.6 c 4.1,-25.2 38.1,-44.5 78.7,-44.5 H 28999 c 43.6,0 79,22.2 79,49.5 0,27.1 -34.9,49.1 -78.2,49.4 l -4275.6,27.6 c -0.3,0 -0.6,0 -0.9,0" /></clipPath><linearGradient
       id="linearGradient298"
       spreadMethod="pad"
       gradientTransform="matrix(34736.9,28562.3,28562.3,-34736.9,6868.95,6463.4)"
       gradientUnits="userSpaceOnUse"
       y2="0"
       x2="1"
       y1="0"
       x1="0"><stop
         id="stop294"
         offset="0"
         style="stop-opacity:1;stop-color:#77e0ff" /><stop
         id="stop296"
         offset="1"
         style="stop-opacity:1;stop-color:#6268f9" /></linearGradient><clipPath
       id="clipPath308"
       clipPathUnits="userSpaceOnUse"><path
         id="path306"
         d="M 23104.1,11569.1 H 8179.55 c -141.85,0 -260.62,67.4 -274.76,155.9 l -15.45,96.7 c -16.31,102.1 111.54,190.5 274.68,190.5 0.97,0 1.96,0 2.94,0 l 14939.94,-96.6 c 151.4,-1 273.3,-78.3 273.3,-173.3 0,-95.7 -123.6,-173.2 -276.1,-173.2" /></clipPath><linearGradient
       id="linearGradient316"
       spreadMethod="pad"
       gradientTransform="matrix(34736.9,28562.3,28562.3,-34736.9,6868.95,6463.4)"
       gradientUnits="userSpaceOnUse"
       y2="0"
       x2="1"
       y1="0"
       x1="0"><stop
         id="stop312"
         offset="0"
         style="stop-opacity:1;stop-color:#d5f5ff" /><stop
         id="stop314"
         offset="1"
         style="stop-opacity:1;stop-color:#ced0fd" /></linearGradient><clipPath
       id="clipPath326"
       clipPathUnits="userSpaceOnUse"><path
         id="path324"
         d="M 17205.4,10594 H 7840.95 c -89,0 -163.53,67.5 -172.4,156 l -9.69,96.6 c -10.23,102.2 69.99,190.6 172.36,190.6 0.61,0 1.22,0 1.83,0 l 9374.15,-96.7 c 95,-0.9 171.5,-78.2 171.5,-173.2 0,-95.7 -77.6,-173.3 -173.3,-173.3" /></clipPath><linearGradient
       id="linearGradient334"
       spreadMethod="pad"
       gradientTransform="matrix(34736.9,28562.3,28562.3,-34736.9,6868.95,6463.4)"
       gradientUnits="userSpaceOnUse"
       y2="0"
       x2="1"
       y1="0"
       x1="0"><stop
         id="stop330"
         offset="0"
         style="stop-opacity:1;stop-color:#d5f5ff" /><stop
         id="stop332"
         offset="1"
         style="stop-opacity:1;stop-color:#ced0fd" /></linearGradient><clipPath
       id="clipPath344"
       clipPathUnits="userSpaceOnUse"><path
         id="path342"
         d="M 17205.4,9661.4 H 7840.95 c -89,0 -163.53,67.5 -172.4,156 l -9.69,96.7 c -10.23,102.1 69.99,190.5 172.36,190.5 0.61,0 1.22,0 1.83,0 l 9374.15,-96.6 c 95,-1 171.5,-78.3 171.5,-173.3 0,-95.7 -77.6,-173.3 -173.3,-173.3" /></clipPath><linearGradient
       id="linearGradient352"
       spreadMethod="pad"
       gradientTransform="matrix(34736.9,28562.3,28562.3,-34736.9,6868.95,6463.4)"
       gradientUnits="userSpaceOnUse"
       y2="0"
       x2="1"
       y1="0"
       x1="0"><stop
         id="stop348"
         offset="0"
         style="stop-opacity:1;stop-color:#d5f5ff" /><stop
         id="stop350"
         offset="1"
         style="stop-opacity:1;stop-color:#ced0fd" /></linearGradient><clipPath
       id="clipPath362"
       clipPathUnits="userSpaceOnUse"><path
         id="path360"
         d="m 13881.8,11633.7 c -11,143.8 -24.4,289.5 -37.3,435.8 l -5781.49,95.2 c -103.24,1.7 -184.49,-140.3 -174.19,-304.5 l 9.68,-154.5 c 8.88,-141.5 83.41,-249.3 172.4,-249.3 H 13898 c -6.2,62.1 -12,121.8 -16.2,177.3 z" /></clipPath><linearGradient
       id="linearGradient368"
       spreadMethod="pad"
       gradientTransform="matrix(5484.77,7726.98,7726.98,-5484.77,10584,11299.4)"
       gradientUnits="userSpaceOnUse"
       y2="0"
       x2="1"
       y1="0"
       x1="0"><stop
         id="stop364"
         offset="0"
         style="stop-opacity:1;stop-color:#a737d5" /><stop
         id="stop366"
         offset="1"
         style="stop-opacity:1;stop-color:#ef497a" /></linearGradient><clipPath
       id="clipPath380"
       clipPathUnits="userSpaceOnUse"><path
         id="path378"
         d="M 22878.1,12635.4 H 8206.57 c -302.98,0 -548.59,245.7 -548.59,548.6 v 8438.2 c 0,307.2 252.1,554.5 559.16,548.5 L 22888.7,21888 c 298.8,-5.8 538,-249.7 538,-548.5 V 13184 c 0,-302.9 -245.6,-548.6 -548.6,-548.6 z" /></clipPath><linearGradient
       id="linearGradient388"
       spreadMethod="pad"
       gradientTransform="matrix(23645.5,22817.6,22817.6,-23645.5,6606.47,8780.1)"
       gradientUnits="userSpaceOnUse"
       y2="0"
       x2="1"
       y1="0"
       x1="0"><stop
         id="stop384"
         offset="0"
         style="stop-opacity:1;stop-color:#a737d5" /><stop
         id="stop386"
         offset="1"
         style="stop-opacity:1;stop-color:#ef497a" /></linearGradient><clipPath
       id="clipPath402"
       clipPathUnits="userSpaceOnUse"><path
         id="path400"
         d="m 29239.8,18851.6 h -4533.2 c -93.6,0 -169.5,75.9 -169.5,169.5 v 2607.3 c 0,94.9 77.9,171.3 172.8,169.4 l 4533.2,-87.3 c 92.3,-1.8 166.3,-77.2 166.3,-169.5 v -2519.9 c 0,-93.6 -75.9,-169.5 -169.6,-169.5 z" /></clipPath><linearGradient
       id="linearGradient410"
       spreadMethod="pad"
       gradientTransform="matrix(23645.5,22817.6,22817.6,-23645.5,10658.4,4581.2)"
       gradientUnits="userSpaceOnUse"
       y2="0"
       x2="1"
       y1="0"
       x1="0"><stop
         id="stop406"
         offset="0"
         style="stop-opacity:1;stop-color:#a737d5" /><stop
         id="stop408"
         offset="1"
         style="stop-opacity:1;stop-color:#ef497a" /></linearGradient><clipPath
       id="clipPath424"
       clipPathUnits="userSpaceOnUse"><path
         id="path422"
         d="m 29279,14675.1 h -4533.2 c -93.6,0 -169.5,75.9 -169.5,169.5 v 2607.2 c 0,94.9 77.9,171.3 172.8,169.5 l 4533.2,-87.4 c 92.3,-1.7 166.2,-77.1 166.2,-169.4 v -2519.9 c 0,-93.6 -75.8,-169.5 -169.5,-169.5 z" /></clipPath><linearGradient
       id="linearGradient432"
       spreadMethod="pad"
       gradientTransform="matrix(23645.5,22817.6,22817.6,-23645.5,12764.3,2398.9)"
       gradientUnits="userSpaceOnUse"
       y2="0"
       x2="1"
       y1="0"
       x1="0"><stop
         id="stop428"
         offset="0"
         style="stop-opacity:1;stop-color:#a737d5" /><stop
         id="stop430"
         offset="1"
         style="stop-opacity:1;stop-color:#ef497a" /></linearGradient><clipPath
       id="clipPath446"
       clipPathUnits="userSpaceOnUse"><path
         id="path444"
         d="m 29363,10099.6 h -4625.3 c -44,0 -80.8,20.8 -85.1,48.2 l -4.8,29.8 c -5.1,31.6 34.5,58.9 85.1,58.9 0.3,0 0.6,0 0.9,0 l 4630,-29.9 c 47,-0.3 84.7,-24.1 84.7,-53.5 0,-29.6 -38.3,-53.5 -85.5,-53.5" /></clipPath><linearGradient
       id="linearGradient454"
       spreadMethod="pad"
       gradientTransform="matrix(34736.9,28562.3,28562.3,-34736.9,6868.95,6463.4)"
       gradientUnits="userSpaceOnUse"
       y2="0"
       x2="1"
       y1="0"
       x1="0"><stop
         id="stop450"
         offset="0"
         style="stop-opacity:1;stop-color:#d5f5ff" /><stop
         id="stop452"
         offset="1"
         style="stop-opacity:1;stop-color:#ced0fd" /></linearGradient><clipPath
       id="clipPath464"
       clipPathUnits="userSpaceOnUse"><path
         id="path462"
         d="m 27526.3,9741.6 h -2893.5 c -27.5,0 -50.5,27.8 -53.3,64.4 l -2.9,40 c -3.2,42.2 21.6,78.7 53.2,78.7 0.2,0 0.4,0 0.6,0 l 2896.4,-39.9 c 29.4,-0.4 53,-32.4 53,-71.6 0,-39.6 -24,-71.6 -53.5,-71.6" /></clipPath><linearGradient
       id="linearGradient472"
       spreadMethod="pad"
       gradientTransform="matrix(34736.9,28562.3,28562.3,-34736.9,6868.95,6463.4)"
       gradientUnits="userSpaceOnUse"
       y2="0"
       x2="1"
       y1="0"
       x1="0"><stop
         id="stop468"
         offset="0"
         style="stop-opacity:1;stop-color:#d5f5ff" /><stop
         id="stop470"
         offset="1"
         style="stop-opacity:1;stop-color:#ced0fd" /></linearGradient><clipPath
       id="clipPath482"
       clipPathUnits="userSpaceOnUse"><path
         id="path480"
         d="m 26499.3,10119.5 c -3.4,44.5 -7.5,89.5 -11.5,134.7 l -1786.4,29.4 c -31.9,0.6 -57,-43.3 -53.8,-94.1 l 3,-47.7 c 2.7,-43.7 25.8,-77 53.3,-77 h 1800.4 c -1.9,19.2 -3.7,37.6 -5,54.7 z" /></clipPath><linearGradient
       id="linearGradient490"
       spreadMethod="pad"
       gradientTransform="matrix(4484.41,11556,11556,-4484.41,24652.1,7763.1)"
       gradientUnits="userSpaceOnUse"
       y2="0"
       x2="1"
       y1="0"
       x1="0"><stop
         id="stop486"
         offset="0"
         style="stop-opacity:1;stop-color:#a737d5" /><stop
         id="stop488"
         offset="1"
         style="stop-opacity:1;stop-color:#ef497a" /></linearGradient><clipPath
       id="clipPath504"
       clipPathUnits="userSpaceOnUse"><path
         id="path502"
         d="m 29279,10498.1 h -4533.2 c -93.6,0 -169.5,75.8 -169.5,169.5 v 2607.2 c 0,94.9 77.9,171.3 172.8,169.5 l 4533.2,-87.4 c 92.3,-1.7 166.2,-77.1 166.2,-169.4 v -2519.9 c 0,-93.7 -75.8,-169.5 -169.5,-169.5 z" /></clipPath><linearGradient
       id="linearGradient512"
       spreadMethod="pad"
       gradientTransform="matrix(23645.5,22817.6,22817.6,-23645.5,14851.5,236.001)"
       gradientUnits="userSpaceOnUse"
       y2="0"
       x2="1"
       y1="0"
       x1="0"><stop
         id="stop508"
         offset="0"
         style="stop-opacity:1;stop-color:#a737d5" /><stop
         id="stop510"
         offset="1"
         style="stop-opacity:1;stop-color:#ef497a" /></linearGradient><clipPath
       id="clipPath526"
       clipPathUnits="userSpaceOnUse"><path
         id="path524"
         d="M 29047.2,14215.9 H 24776 c -40.6,0 -74.5,19.3 -78.6,44.5 l -4.4,27.6 c -4.7,29.2 31.9,54.4 78.6,54.4 0.3,0 0.6,0 0.8,0 l 4275.7,-27.6 c 43.3,-0.3 78.2,-22.3 78.2,-49.4 0,-27.3 -35.4,-49.5 -79.1,-49.5" /></clipPath><linearGradient
       id="linearGradient534"
       spreadMethod="pad"
       gradientTransform="matrix(34736.9,28562.3,28562.3,-34736.9,6868.95,6463.4)"
       gradientUnits="userSpaceOnUse"
       y2="0"
       x2="1"
       y1="0"
       x1="0"><stop
         id="stop530"
         offset="0"
         style="stop-opacity:1;stop-color:#d5f5ff" /><stop
         id="stop532"
         offset="1"
         style="stop-opacity:1;stop-color:#ced0fd" /></linearGradient><clipPath
       id="clipPath544"
       clipPathUnits="userSpaceOnUse"><path
         id="path542"
         d="m 27351.1,13885.3 h -2671.9 c -25.4,0 -46.7,25.8 -49.2,59.6 l -2.8,36.9 c -2.9,38.9 20,72.7 49.2,72.7 0.2,0 0.3,0 0.5,0 l 2674.8,-36.9 c 27.1,-0.4 48.9,-29.9 48.9,-66.1 0,-36.5 -22.2,-66.2 -49.5,-66.2" /></clipPath><linearGradient
       id="linearGradient552"
       spreadMethod="pad"
       gradientTransform="matrix(34736.9,28562.3,28562.3,-34736.9,6868.95,6463.4)"
       gradientUnits="userSpaceOnUse"
       y2="0"
       x2="1"
       y1="0"
       x1="0"><stop
         id="stop548"
         offset="0"
         style="stop-opacity:1;stop-color:#d5f5ff" /><stop
         id="stop550"
         offset="1"
         style="stop-opacity:1;stop-color:#ced0fd" /></linearGradient><clipPath
       id="clipPath562"
       clipPathUnits="userSpaceOnUse"><path
         id="path560"
         d="m 26402.8,14234.4 c -3.1,41 -7,82.6 -10.6,124.3 l -1649.7,27.2 c -29.4,0.5 -52.6,-40.1 -49.7,-86.9 l 2.8,-44.1 c 2.5,-40.3 23.8,-71.1 49.2,-71.1 h 1662.6 c -1.7,17.7 -3.4,34.7 -4.6,50.6 z" /></clipPath><linearGradient
       id="linearGradient570"
       spreadMethod="pad"
       gradientTransform="matrix(4484.41,11556,11556,-4484.41,25021.3,12894)"
       gradientUnits="userSpaceOnUse"
       y2="0"
       x2="1"
       y1="0"
       x1="0"><stop
         id="stop566"
         offset="0"
         style="stop-opacity:1;stop-color:#a737d5" /><stop
         id="stop568"
         offset="1"
         style="stop-opacity:1;stop-color:#ef497a" /></linearGradient><clipPath
       id="clipPath584"
       clipPathUnits="userSpaceOnUse"><path
         id="path582"
         d="m 28999,18339.3 h -4271.2 c -40.6,0 -74.6,19.3 -78.7,44.5 l -4.4,27.6 c -4.7,29.2 32,54.4 78.6,54.4 0.3,0 0.6,0 0.9,0 l 4275.6,-27.6 c 43.3,-0.3 78.2,-22.3 78.2,-49.4 0,-27.3 -35.4,-49.5 -79,-49.5" /></clipPath><linearGradient
       id="linearGradient592"
       spreadMethod="pad"
       gradientTransform="matrix(34736.9,28562.3,28562.3,-34736.9,6868.95,6463.4)"
       gradientUnits="userSpaceOnUse"
       y2="0"
       x2="1"
       y1="0"
       x1="0"><stop
         id="stop588"
         offset="0"
         style="stop-opacity:1;stop-color:#d5f5ff" /><stop
         id="stop590"
         offset="1"
         style="stop-opacity:1;stop-color:#ced0fd" /></linearGradient><clipPath
       id="clipPath602"
       clipPathUnits="userSpaceOnUse"><path
         id="path600"
         d="m 27302.9,18008.7 h -2672 c -25.4,0 -46.6,25.8 -49.2,59.6 l -2.8,36.9 c -2.9,38.9 20,72.7 49.2,72.7 0.2,0 0.4,0 0.6,0 l 2674.7,-36.9 c 27.1,-0.4 48.9,-29.9 48.9,-66.1 0,-36.6 -22.1,-66.2 -49.4,-66.2" /></clipPath><linearGradient
       id="linearGradient610"
       spreadMethod="pad"
       gradientTransform="matrix(34736.9,28562.3,28562.3,-34736.9,6868.95,6463.4)"
       gradientUnits="userSpaceOnUse"
       y2="0"
       x2="1"
       y1="0"
       x1="0"><stop
         id="stop606"
         offset="0"
         style="stop-opacity:1;stop-color:#d5f5ff" /><stop
         id="stop608"
         offset="1"
         style="stop-opacity:1;stop-color:#ced0fd" /></linearGradient><clipPath
       id="clipPath620"
       clipPathUnits="userSpaceOnUse"><path
         id="path618"
         d="m 26354.5,18357.8 c -3.1,41 -6.9,82.6 -10.6,124.3 l -1649.6,27.2 c -29.5,0.5 -52.7,-40.1 -49.7,-86.9 l 2.7,-44.1 c 2.6,-40.4 23.8,-71.1 49.2,-71.1 h 1662.7 c -1.8,17.7 -3.4,34.7 -4.7,50.6 z" /></clipPath><linearGradient
       id="linearGradient628"
       spreadMethod="pad"
       gradientTransform="matrix(4484.4,11556,11556,-4484.4,24446.8,15661.4)"
       gradientUnits="userSpaceOnUse"
       y2="0"
       x2="1"
       y1="0"
       x1="0"><stop
         id="stop624"
         offset="0"
         style="stop-opacity:1;stop-color:#a737d5" /><stop
         id="stop626"
         offset="1"
         style="stop-opacity:1;stop-color:#ef497a" /></linearGradient><clipPath
       id="clipPath642"
       clipPathUnits="userSpaceOnUse"><path
         id="path640"
         d="m 5569.52,14999.1 c 0,0 -1207.7,-669 -1307.61,-1801.3 -99.92,-1132.3 -8.32,-5831.9 2413.42,-6988.6 2421.74,-1156.7 5627.27,-890.1 6854.37,-763.6 1227,126.4 1907.3,960.3 2059.3,1534.5 152,574.1 397.4,2713 -893.4,3402.9 -1290.8,689.9 -2646.5,1746.9 -4001.2,2776.1 -1354.69,1029.2 -3676.33,2709.3 -5124.88,1840 z" /></clipPath><linearGradient
       id="linearGradient648"
       spreadMethod="pad"
       gradientTransform="matrix(-3198.91,-5085.45,-5085.45,3198.91,11661.8,12972)"
       gradientUnits="userSpaceOnUse"
       y2="0"
       x2="1"
       y1="0"
       x1="0"><stop
         id="stop644"
         offset="0"
         style="stop-opacity:1;stop-color:#cb236d" /><stop
         id="stop646"
         offset="1"
         style="stop-opacity:1;stop-color:#4c246d" /></linearGradient><clipPath
       id="clipPath658"
       clipPathUnits="userSpaceOnUse"><path
         id="path656"
         d="m 14315,9992.7 c 0,0 -326,-17.3 -365.9,-687.9 0,0 755.8,-677.5 1776.8,-838.8 76.6,-12.1 -107.2,523.2 -134.8,595.7 -131.5,345.1 -545.5,567.3 -1276.1,931 z" /></clipPath><linearGradient
       id="linearGradient664"
       spreadMethod="pad"
       gradientTransform="matrix(1181.65,-1234.17,-1234.17,-1181.65,14644.4,9355.3)"
       gradientUnits="userSpaceOnUse"
       y2="0"
       x2="1"
       y1="0"
       x1="0"><stop
         id="stop660"
         offset="0"
         style="stop-opacity:1;stop-color:#2b3582" /><stop
         id="stop662"
         offset="1"
         style="stop-opacity:1;stop-color:#150e42" /></linearGradient><clipPath
       id="clipPath674"
       clipPathUnits="userSpaceOnUse"><path
         id="path672"
         d="m 10644.1,10781.2 h 687.8 c 0,0 2111.2,2331.5 3495.8,2566.8 0,0 963.9,-1230.4 -51.3,-3529.3 -81.7,-184.9 -310.1,-267 -480.4,-158.2 -51,32.5 -87.6,76.2 -109.8,130.8 l 81.6,1962.9 c 0,0 -1800.8,-1575 -2113.8,-1879 -313,-303.9 -1904.1,-118.7 -1509.9,906 z" /></clipPath><linearGradient
       id="linearGradient680"
       spreadMethod="pad"
       gradientTransform="matrix(1230.35,4634.32,4634.32,-1230.35,12820.5,10579.5)"
       gradientUnits="userSpaceOnUse"
       y2="0"
       x2="1"
       y1="0"
       x1="0"><stop
         id="stop676"
         offset="0"
         style="stop-opacity:1;stop-color:#2b3582" /><stop
         id="stop678"
         offset="1"
         style="stop-opacity:1;stop-color:#150e42" /></linearGradient><clipPath
       id="clipPath690"
       clipPathUnits="userSpaceOnUse"><path
         id="path688"
         d="m 17294.1,5885.9 c -288.3,252.5 -747.6,536 -1410.6,617.2 L 15659.3,6366 c 0,0 143,-210.9 404.2,-433.7 240.1,-139.4 610.7,-328.3 918.1,-369.2 298.7,-39.8 342.8,140.7 312.5,322.8 z" /></clipPath><linearGradient
       id="linearGradient698"
       spreadMethod="pad"
       gradientTransform="matrix(2235.15,-1640.47,-1640.47,-2235.15,16211.9,6257.5)"
       gradientUnits="userSpaceOnUse"
       y2="0"
       x2="1"
       y1="0"
       x1="0"><stop
         id="stop694"
         offset="0"
         style="stop-opacity:1;stop-color:#2b3582" /><stop
         id="stop696"
         offset="1"
         style="stop-opacity:1;stop-color:#150e42" /></linearGradient><clipPath
       id="clipPath708"
       clipPathUnits="userSpaceOnUse"><path
         id="path706"
         d="m 15591.1,9061.7 c -177.6,-57.4 -255.7,-309 -706.3,-142.7 -435.9,161 -760,368.6 -926.7,488.3 -3.7,-32.5 -6.9,-66.4 -9,-102.5 0,0 796.9,-758 1817.9,-919.3 76.6,-12.1 137.4,64.4 109.7,136.9 -49.5,130.1 -138.9,327.5 -285.6,539.3 z" /></clipPath><linearGradient
       id="linearGradient716"
       spreadMethod="pad"
       gradientTransform="matrix(-4702.68,3841.43,3841.43,4702.68,17279.9,7130)"
       gradientUnits="userSpaceOnUse"
       y2="0"
       x2="1"
       y1="0"
       x1="0"><stop
         id="stop710"
         offset="0"
         style="stop-opacity:1;stop-color:#fdf53f" /><stop
         id="stop712"
         offset="0.664524"
         style="stop-opacity:1;stop-color:#e57a58" /><stop
         id="stop714"
         offset="1"
         style="stop-opacity:1;stop-color:#d93c65" /></linearGradient><clipPath
       id="clipPath726"
       clipPathUnits="userSpaceOnUse"><path
         id="path724"
         d="m 17511.2,5670.2 c -56.8,64.6 -129.4,138.7 -217.1,215.7 30.3,-182.1 -13.8,-362.6 -312.5,-322.8 -307.4,40.9 -678,229.8 -918.1,369.2 300.9,-256.6 758.7,-529 1336.5,-513 128.3,3.6 196,154.5 111.2,250.9 z" /></clipPath><linearGradient
       id="linearGradient736"
       spreadMethod="pad"
       gradientTransform="matrix(-4702.67,3841.42,3841.42,4702.67,18555.6,4375.6)"
       gradientUnits="userSpaceOnUse"
       y2="0"
       x2="1"
       y1="0"
       x1="0"><stop
         id="stop730"
         offset="0"
         style="stop-opacity:1;stop-color:#fdf53f" /><stop
         id="stop732"
         offset="0.664524"
         style="stop-opacity:1;stop-color:#e57a58" /><stop
         id="stop734"
         offset="1"
         style="stop-opacity:1;stop-color:#d93c65" /></linearGradient><clipPath
       id="clipPath746"
       clipPathUnits="userSpaceOnUse"><path
         id="path744"
         d="m 10669.2,10283.5 3221.2,-34.9 c 0,0 1839.4,-1521.9 2173.1,-3842.6 0,0 55.4,-170.7 -277.1,-199.9 0,0 -1112.2,726.4 -1837.3,2010.6 -889.2,1574.6 -2650.7,865.8 -2650.7,865.8 -578.8,417.3 -1396.69,502.3 -2012.84,641.3 z" /></clipPath><linearGradient
       id="linearGradient752"
       spreadMethod="pad"
       gradientTransform="matrix(-4675.34,-1763.5,-1763.5,4675.34,16244,9369)"
       gradientUnits="userSpaceOnUse"
       y2="0"
       x2="1"
       y1="0"
       x1="0"><stop
         id="stop748"
         offset="0"
         style="stop-opacity:1;stop-color:#2b3582" /><stop
         id="stop750"
         offset="1"
         style="stop-opacity:1;stop-color:#150e42" /></linearGradient><clipPath
       id="clipPath762"
       clipPathUnits="userSpaceOnUse"><path
         id="path760"
         d="m 10745.3,12878.2 c 0,0 346.8,-1737.8 2045.8,-2425.3 l 604.3,71.3 142.7,-227.4 -1417.7,-45.2 c 0,0 -1211.8,480 -1853.8,1787.8 -21.2,43.2 -374.75,773.2 478.7,838.8 z" /></clipPath><linearGradient
       id="linearGradient768"
       spreadMethod="pad"
       gradientTransform="matrix(-1517.44,-1804.52,-1804.52,1517.44,12600.8,12320.3)"
       gradientUnits="userSpaceOnUse"
       y2="0"
       x2="1"
       y1="0"
       x1="0"><stop
         id="stop764"
         offset="0"
         style="stop-opacity:1;stop-color:#f9b776" /><stop
         id="stop766"
         offset="1"
         style="stop-opacity:1;stop-color:#f47960" /></linearGradient><clipPath
       id="clipPath778"
       clipPathUnits="userSpaceOnUse"><path
         id="path776"
         d="m 10931.1,10311.9 c 0,0 -394.3,1071.8 -479,2113.4 0,0 288.4,247.9 468.7,354.8 58.4,34.7 80.5,108 51,169.1 -132.6,274.6 -934.3,1352.9 -994.33,1367.9 -326.42,81.5 -1665.09,718 -2607.91,-571.7 -404.62,-553.4 80.3,-2257.2 1916,-4021.6 l 378.71,-72.4 z" /></clipPath><linearGradient
       id="linearGradient786"
       spreadMethod="pad"
       gradientTransform="matrix(2431.23,-8529.6,-8529.6,-2431.23,8333.34,15664.1)"
       gradientUnits="userSpaceOnUse"
       y2="0"
       x2="1"
       y1="0"
       x1="0"><stop
         id="stop780"
         offset="0"
         style="stop-opacity:1;stop-color:#fdf53f" /><stop
         id="stop782"
         offset="0.664524"
         style="stop-opacity:1;stop-color:#e57a58" /><stop
         id="stop784"
         offset="1"
         style="stop-opacity:1;stop-color:#d93c65" /></linearGradient><clipPath
       id="clipPath796"
       clipPathUnits="userSpaceOnUse"><path
         id="path794"
         d="m 9411.69,12190.4 c 0,0 1095.51,-1297.2 2496.21,-1486.8 0,0 362,330 631.2,212.2 269.2,-117.9 638.2,-637.9 638.2,-637.9 h -1798.4 c 0,0 -1700.54,59.9 -2550.28,1091.1 68.38,360.8 273.14,576.3 583.07,821.4 z" /></clipPath><linearGradient
       id="linearGradient802"
       spreadMethod="pad"
       gradientTransform="matrix(3033.11,4149.46,4149.46,-3033.11,10831.4,10678.4)"
       gradientUnits="userSpaceOnUse"
       y2="0"
       x2="1"
       y1="0"
       x1="0"><stop
         id="stop798"
         offset="0"
         style="stop-opacity:1;stop-color:#f9b776" /><stop
         id="stop800"
         offset="1"
         style="stop-opacity:1;stop-color:#f47960" /></linearGradient><clipPath
       id="clipPath812"
       clipPathUnits="userSpaceOnUse"><path
         id="path810"
         d="m 8772.57,15227 -239.7,-799.5 c -10.99,-36.7 2.57,-76.3 34.13,-97.9 115.41,-79.1 417.04,-236.3 830.83,-83.5 47.32,17.5 79.75,61.7 83.85,111.9 l 56.83,696.5 z" /></clipPath><linearGradient
       id="linearGradient818"
       spreadMethod="pad"
       gradientTransform="matrix(111.723,1005.51,1005.51,-111.723,8975.94,14117.1)"
       gradientUnits="userSpaceOnUse"
       y2="0"
       x2="1"
       y1="0"
       x1="0"><stop
         id="stop814"
         offset="0"
         style="stop-opacity:1;stop-color:#f9b776" /><stop
         id="stop816"
         offset="1"
         style="stop-opacity:1;stop-color:#f47960" /></linearGradient><clipPath
       id="clipPath828"
       clipPathUnits="userSpaceOnUse"><path
         id="path826"
         d="m 9782.53,16560.6 c 0,0 431.27,-717.5 344.97,-1116.1 -86.2,-398.5 -688.61,-640.9 -1245.26,-288.2 l -349.89,1092.3 z" /></clipPath><linearGradient
       id="linearGradient836"
       spreadMethod="pad"
       gradientTransform="matrix(-1406.6,949.691,949.691,1406.6,9868.78,15496.3)"
       gradientUnits="userSpaceOnUse"
       y2="0"
       x2="1"
       y1="0"
       x1="0"><stop
         id="stop832"
         offset="0"
         style="stop-opacity:1;stop-color:#f9b776" /><stop
         id="stop834"
         offset="1"
         style="stop-opacity:1;stop-color:#f47960" /></linearGradient><clipPath
       id="clipPath846"
       clipPathUnits="userSpaceOnUse"><path
         id="path844"
         d="m 8931.88,15682.5 c 23.71,9.2 33.6,37.2 20.66,59.1 -39.33,66.7 -112.57,202.2 -132.54,318.9 0,0 -92.17,65.2 248.25,130.2 340.41,65.1 848.29,166.9 967.05,448.6 115.8,274.7 -122.05,989.9 -579.24,449.9 -17.39,-20.5 -49.57,-19.5 -64.97,2.6 -66.45,95.3 -243.51,294.9 -506.95,191 -246.53,-97.2 -281.92,-272.9 -282.72,-362.3 -0.24,-26.3 -24.64,-45.6 -50.2,-39.5 -121.04,29 -413.14,62.5 -563.81,-231.8 -124.1,-242.4 -57.36,-385.9 6.15,-457.5 20.59,-23.2 9.42,-59.4 -20.62,-67.1 -81.39,-20.8 -188.16,-84.1 -186.48,-272.6 2.33,-260.6 294,-251.1 377.29,-243.1 13.65,1.3 27.09,-3.9 35.81,-14.5 67.32,-81.8 371.55,-430 715.65,-486.1 29.79,-4.9 54.38,23.6 45.88,52.6 l -129.6,442.1 c -6.02,20.5 4.68,42.3 24.62,50 z" /></clipPath><linearGradient
       id="linearGradient854"
       spreadMethod="pad"
       gradientTransform="matrix(2002.42,-1737.52,-1737.52,-2002.42,7642.84,17530.1)"
       gradientUnits="userSpaceOnUse"
       y2="0"
       x2="1"
       y1="0"
       x1="0"><stop
         id="stop850"
         offset="0"
         style="stop-opacity:1;stop-color:#2b3582" /><stop
         id="stop852"
         offset="1"
         style="stop-opacity:1;stop-color:#150e42" /></linearGradient><clipPath
       id="clipPath864"
       clipPathUnits="userSpaceOnUse"><path
         id="path862"
         d="m 8989.21,15617.9 c 0,0 -364.21,275.5 -401.75,59.4 -37.52,-216 324.18,-330.4 509.31,-257.8 z" /></clipPath><linearGradient
       id="linearGradient870"
       spreadMethod="pad"
       gradientTransform="matrix(-1406.61,949.695,949.695,1406.61,9570.53,15054.6)"
       gradientUnits="userSpaceOnUse"
       y2="0"
       x2="1"
       y1="0"
       x1="0"><stop
         id="stop866"
         offset="0"
         style="stop-opacity:1;stop-color:#f9b776" /><stop
         id="stop868"
         offset="1"
         style="stop-opacity:1;stop-color:#f47960" /></linearGradient><clipPath
       id="clipPath880"
       clipPathUnits="userSpaceOnUse"><path
         id="path878"
         d="m 13086.8,10177.2 807.5,2692.9 c 33,109.9 130.5,187.8 245,195.7 l 1090.2,74.6 c 110.8,7.6 193.3,-100.7 156.5,-205.5 l -902.8,-2571.7 c -29,-82.9 -103.4,-141.5 -190.8,-150.3 l -1073.6,-119.2 z" /></clipPath><linearGradient
       id="linearGradient886"
       spreadMethod="pad"
       gradientTransform="matrix(2897.62,3484.05,3484.05,-2897.62,12653,9776.2)"
       gradientUnits="userSpaceOnUse"
       y2="0"
       x2="1"
       y1="0"
       x1="0"><stop
         id="stop882"
         offset="0"
         style="stop-opacity:1;stop-color:#53d8ff" /><stop
         id="stop884"
         offset="1"
         style="stop-opacity:1;stop-color:#3840f7" /></linearGradient><clipPath
       id="clipPath896"
       clipPathUnits="userSpaceOnUse"><path
         id="path894"
         d="m 14576.1,11957.4 c -60.3,-121.7 -164.4,-192.9 -232.6,-159.2 -68.1,33.8 -74.5,159.8 -14.2,281.5 60.3,121.7 164.4,193 232.5,159.2 68.2,-33.8 74.5,-159.8 14.3,-281.5 z" /></clipPath><linearGradient
       id="linearGradient902"
       spreadMethod="pad"
       gradientTransform="matrix(-1404.66,-1425.17,-1425.17,1404.66,15021.9,12596)"
       gradientUnits="userSpaceOnUse"
       y2="0"
       x2="1"
       y1="0"
       x1="0"><stop
         id="stop898"
         offset="0"
         style="stop-opacity:1;stop-color:#fdf53f" /><stop
         id="stop900"
         offset="1"
         style="stop-opacity:1;stop-color:#d93c65" /></linearGradient><clipPath
       id="clipPath912"
       clipPathUnits="userSpaceOnUse"><path
         id="path910"
         d="m 13218.8,10093.7 c -1.7,0 -3.5,0 -5.2,0.1 l -2287.6,115.7 c -56.6,2.8 -100.1,51 -97.3,107.5 2.9,56.6 51.3,101.1 107.6,97.2 l 2287.6,-115.6 c 56.6,-2.8 100.1,-51 97.2,-107.5 -2.7,-54.8 -48,-97.4 -102.3,-97.4 z" /></clipPath><linearGradient
       id="linearGradient918"
       spreadMethod="pad"
       gradientTransform="matrix(1276.33,4760.38,4760.38,-1276.33,11771.9,9123.7)"
       gradientUnits="userSpaceOnUse"
       y2="0"
       x2="1"
       y1="0"
       x1="0"><stop
         id="stop914"
         offset="0"
         style="stop-opacity:1;stop-color:#53d8ff" /><stop
         id="stop916"
         offset="1"
         style="stop-opacity:1;stop-color:#3840f7" /></linearGradient></defs><g
     transform="matrix(1.3333333,0,0,-1.3333333,0,4946.6667)"
     id="g10"><g
       transform="scale(0.1)"
       id="g12"><g
         transform="scale(2.27607)"
         id="g14"><path
           id="path16"
           style="fill:#ffffff;fill-opacity:1;fill-rule:nonzero;stroke:none"
           d="M 16300,0 H 0 V 16300 H 16300 V 0" /></g><g
         id="g18"><g
           clip-path="url(#clipPath24)"
           id="g20"><g
             transform="scale(1.99693)"
             id="g26"><path
               id="path34"
               style="fill:url(#linearGradient32);fill-opacity:1;fill-rule:nonzero;stroke:none"
               d="m 9390.7,2278.49 c -868.93,0 -1566.65,121.24 -1928.1,188.49 -1399.35,260.45 -2580.58,444.19 -3595.47,1361.14 -144.14,130.2 -278.9,269.37 -404.32,416.29 H 14540.2 c -1,-1.1 -2.1,-2.2 -3.2,-3.31 -367.3,-378.57 -696,-601.17 -947.6,-769.17 C 12158,2516.16 10606.8,2278.49 9390.7,2278.49 m -6195.81,2311.2 c -1215.44,1724.29 -1348.92,4298.44 -642.9,6486.41 112.47,-499.5 303.51,-942.9 520.81,-1322.89 l 122.09,-5163.52 m 12551.41,1569.66 76,5248.65 c 0,118.4 -134.4,345.3 -381.5,345.3 -9.2,0 -18.5,-0.3 -28.1,-1 l -460.9,11.9 c -83.5,1828 -1580.9,3284.2 -3475.9,3284.2 -46,0 -91.8,-0.8 -137.5,-2.5 -45.3,1.7 -90.9,2.5 -136.7,2.5 -1823.42,0 -3382.61,-1338.7 -3674.81,-3092 l -546.99,14.2 c -438.32,882.8 -1064.18,1818.5 -1947.93,2769.3 801.63,682.5 1879.28,1334.9 3183.23,1505.4 68.76,9 120.04,14.1 165,18.9 109.82,11.6 364.06,35.8 717.85,35.8 1046.95,0 2967.25,-211.8 4609.75,-1587.9 314.6,-263.5 820.8,-738.9 1290.3,-1463.9 1300,-2007.9 1618.6,-4850.22 748.2,-7088.85 m -1496.5,5623.05 -470.7,12.2 c -28.5,275.3 -107.1,535.1 -226.9,770.3 357,-107.2 627.7,-406.6 697.6,-782.5 m -5014.99,129.8 -859.31,22.2 c 180.22,305.3 502.52,524 875.79,567.7 63.2,-7.5 124.64,-20.2 183.83,-37.5 -88.88,-173.2 -156.84,-358.4 -200.31,-552.4 m -5763.08,132.1 c -74.19,209.7 -145.45,420.1 -210.45,625.8 56.06,95.2 114.13,188.8 174.04,280.3 24.13,36.9 68.96,104.3 133.67,195.2 -2.91,-347.8 6.06,-713.5 32.33,-1087.7 -2.17,0 -4.34,0 -6.5,0 -41.72,0 -82.98,-4.6 -123.09,-13.6 m 6911.47,1409.8 c -1.5,23 -2.2,46.2 -2.2,69.6 0,554 422.2,1012.7 962.1,1080.1 493.5,-61.9 878.5,-454.1 926.3,-945.8 -221.1,71.9 -458.2,110.7 -705.7,110.7 -9.5,0 -19,0 -28.6,-0.1 -416.6,-5.1 -810.1,-119 -1151.9,-314.5" /></g></g></g><g
         id="g36"><g
           clip-path="url(#clipPath42)"
           id="g38"><g
             transform="scale(1.74696)"
             id="g44"><path
               id="path52"
               style="fill:url(#linearGradient50);fill-opacity:1;fill-rule:nonzero;stroke:none"
               d="m 3512.49,11148.8 c -248.39,434.4 -466.77,941.2 -595.34,1512.2 -9.91,44 -19.32,88.6 -28.14,133.3 -325.74,1654.6 145.07,2970 372.93,3477.3 8.78,19.6 25.9,28.4 42.99,28.4 24.27,0 48.47,-17.9 48.54,-48.3 1.11,-440.1 157.29,-1081.4 374.46,-1768.6 74.31,-235.1 155.76,-475.7 240.57,-715.4 -117.8,-26.3 -226.91,-85.5 -313.88,-172.2 -124.76,-124.4 -193.02,-294.4 -188.86,-470.4 l 2.6,-109.8 -8.41,25.6 c -79.14,231.5 -138.49,469.3 -185.52,709.2 -47.96,239.8 -74.53,483.9 -81.25,728.5 -1.87,30.6 -0.48,61.2 -0.99,91.7 l -0.22,91.9 3.63,91.7 1.84,45.9 c 0.92,15.3 2.38,30.5 3.55,45.8 2.69,30.5 4.44,61.2 7.91,91.6 l 11.13,91.2 c 9.35,60.5 18.23,121.3 33.73,180.7 l -0.54,1 -1.04,-0.5 c -34.3,-118.2 -53.77,-240.2 -66.36,-362.6 -1.67,-15.3 -3.62,-30.6 -5.04,-45.9 l -3.33,-46 -6.6,-92.1 -2.76,-92.4 c -0.63,-30.8 -2.56,-61.6 -1.3,-92.4 1.74,-246.3 23.5,-492.8 66.9,-735.5 8.36,-61.2 23.12,-121.1 35.6,-181.5 l 19.35,-90.4 c 3.43,-15 5.99,-30.3 10.13,-45.1 l 11.86,-44.7 47.42,-178.8 c 7.25,-30 17.63,-59 26.86,-88.4 l 28.34,-88.1 28.35,-88 14.31,-44 16.31,-43.2 0.04,-0.1 40.23,-1701.6" /></g></g></g><g
         id="g54"><g
           clip-path="url(#clipPath60)"
           id="g56"><g
             transform="scale(1.63015)"
             id="g62"><path
               id="path70"
               style="fill:url(#linearGradient68);fill-opacity:1;fill-rule:nonzero;stroke:none"
               d="m 3721.06,13771.2 -0.04,0.1 -17.48,46.3 -15.34,47.2 -30.38,94.3 -30.37,94.3 c -9.89,31.5 -21.02,62.6 -28.78,94.8 l -50.83,191.6 -12.7,47.9 c -4.44,15.9 -7.18,32.2 -10.86,48.3 l -20.73,96.9 c -13.38,64.7 -29.2,128.9 -38.15,194.5 -46.51,260.1 -69.83,524.3 -71.7,788.3 -1.35,32.9 0.72,66 1.4,99 l 2.95,98.9 7.08,98.7 3.56,49.3 c 1.52,16.5 3.62,32.9 5.4,49.2 13.5,131.2 34.37,262 71.12,388.6 l 1.11,0.6 0.58,-1.1 c -16.61,-63.6 -26.13,-128.8 -36.14,-193.7 l -11.93,-97.7 c -3.72,-32.6 -5.6,-65.4 -8.48,-98.1 -1.25,-16.4 -2.82,-32.7 -3.8,-49.1 l -1.97,-49.2 -3.89,-98.3 0.23,-98.4 c 0.54,-32.8 -0.95,-65.6 1.06,-98.4 7.2,-262.1 35.68,-523.7 87.07,-780.7 50.4,-257 114.01,-511.9 198.82,-759.9 l 9.01,-27.5 4.18,-176.7" /></g></g></g><g
         id="g72"><g
           clip-path="url(#clipPath78)"
           id="g74"><g
             transform="scale(1.93799)"
             id="g80"><path
               id="path88"
               style="fill:url(#linearGradient86);fill-opacity:1;fill-rule:nonzero;stroke:none"
               d="m 7192.21,12334.7 -2297.02,59.4 c -45.85,206.5 -90.32,413.2 -133.5,620.2 -74.76,357.7 -145.81,716.2 -213.21,1075.3 -67.23,359.2 -131.65,719 -189.52,1079.6 l -0.01,0.1 c -1.16,7.4 -7.58,12.7 -14.88,12.7 -0.77,0 -1.55,0 -2.34,-0.1 -8.23,-1.3 -13.86,-9 -12.58,-17.3 56.28,-361.5 119.03,-721.6 184.62,-1081.4 65.77,-359.7 135.2,-718.8 208.34,-1077 41.53,-203.9 84.31,-407.6 128.43,-611 l -1131.32,29.3 c -2.79,0.1 -5.58,0.2 -8.36,0.2 -27.07,385.6 -36.31,762.4 -33.31,1120.8 10.31,1232.5 165.17,2247 235.88,2648.4 10.94,62.1 58.51,106.1 102.17,106.1 14.56,0 28.69,-4.9 40.88,-15.6 415.39,-366.2 790.22,-732.2 1128.54,-1096.2 910.64,-979.7 1555.54,-1943.9 2007.19,-2853.5" /></g></g></g><g
         id="g90"><g
           clip-path="url(#clipPath96)"
           id="g92"><g
             transform="scale(1.80507)"
             id="g98"><path
               id="path106"
               style="fill:url(#linearGradient104);fill-opacity:1;fill-rule:nonzero;stroke:none"
               d="m 5255.65,13306.7 -47.93,1.3 c -47.37,218.3 -93.3,437 -137.89,655.9 -78.52,384.7 -153.07,770.1 -223.68,1156.3 -70.42,386.3 -137.8,773 -198.21,1161.1 -1.38,8.9 4.67,17.1 13.5,18.5 0.84,0.1 1.68,0.2 2.51,0.2 7.84,0 14.74,-5.7 15.98,-13.7 l 0.01,-0.1 c 62.13,-387.1 131.3,-773.5 203.48,-1159.1 72.35,-385.5 148.64,-770.4 228.9,-1154.4 46.37,-222.3 94.1,-444.3 143.33,-666" /></g></g></g><g
         id="g108"><g
           clip-path="url(#clipPath114)"
           id="g110"><g
             transform="scale(1.8436)"
             id="g116"><path
               id="path124"
               style="fill:url(#linearGradient122);fill-opacity:1;fill-rule:nonzero;stroke:none"
               d="m 15733.4,12754.7 -298.4,7.7 c -75.8,407.1 -369,731.4 -755.6,847.5 -7.9,15.5 -15.9,30.8 -24.2,46.1 1.6,0 3,0 4.5,0 539.7,0 981.4,-384.9 1073.7,-901.3 m -7284.72,188.4 -295.78,7.7 c 316.5,1899.2 2005.4,3349.2 3980.4,3349.2 49.6,0 99,-0.9 148.2,-2.8 -1913.2,-70.7 -3527.49,-1499 -3832.82,-3354.1 m 1771.12,558.2 c -64.1,18.8 -130.6,32.5 -199.1,40.6 39.2,4.6 79,7.5 119.1,8.4 10.1,0.2 20.1,0.3 30,0.3 25.2,0 50.1,-0.7 74.9,-2.2 -8.5,-15.6 -16.7,-31.3 -24.9,-47.1 m 3372.5,1171.2 c -97.2,46.9 -198.1,87.6 -302.4,121.5 -51.8,532.6 -468.9,957.4 -1003.3,1024.4 47.1,5.8 95.1,9 143.7,9.2 1.7,0 3.4,0 5,0 642.4,0 1157,-512 1157,-1145.7 0,-3.2 0,-6.3 0,-9.4" /></g></g></g><g
         id="g126"><g
           clip-path="url(#clipPath132)"
           id="g128"><g
             transform="scale(1.6419)"
             id="g134"><path
               id="path144"
               style="fill:url(#linearGradient142);fill-opacity:1;fill-rule:nonzero;stroke:none"
               d="m 15934.2,14047.7 c 0,-1263.3 -1024.1,-2340.4 -2310.4,-2406.8 -1312.5,-67.8 -2396.2,938.5 -2396.2,2248.8 0,1310.3 1083.7,2389.3 2396.2,2409.8 1286.3,19.9 2310.4,-988.4 2310.4,-2251.8" /></g></g></g><g
         id="g146"><g
           clip-path="url(#clipPath152)"
           id="g148"><g
             transform="scale(1.68809)"
             id="g154"><path
               id="path164"
               style="fill:url(#linearGradient162);fill-opacity:1;fill-rule:nonzero;stroke:none"
               d="m 16300,13952.4 -427.4,11.1 c -42.7,315.5 -151.9,608.8 -313.6,865.8 132,51.3 274.1,80.9 422.1,84.4 8,0.2 16.2,0.3 24.2,0.3 9,-16.7 17.8,-33.4 26.4,-50.4 141.6,-278.1 234.7,-585.5 268.3,-911.2 m -4913.1,127.2 -462.6,11.9 c 51.5,229.5 131.9,448.6 237,653.5 8.9,17.3 17.9,34.5 27.1,51.5 161,-9.5 313.6,-47.1 452.6,-107.9 -112.1,-188.1 -198.5,-392.9 -254.1,-609 m 1008.9,1392 c -63.4,136.1 -102.7,285.8 -112.9,444 404.3,231.3 869.8,366 1362.6,372 11.3,0.1 22.6,0.2 33.8,0.2 292.7,0 573.3,-46 834.8,-131 114,-37 224.1,-81.4 330.4,-132.7 -1.4,-155.5 -31,-305.1 -84.1,-443.5 -317.8,174.2 -685,273.1 -1078.4,273.1 -12.1,0 -24.3,-0.1 -36.5,-0.2 -458,-7.1 -887.4,-146.8 -1249.7,-381.9" /></g></g></g><g
         id="g166"><g
           clip-path="url(#clipPath172)"
           id="g168"><g
             transform="scale(1.64383)"
             id="g174"><path
               id="path184"
               style="fill:url(#linearGradient182);fill-opacity:1;fill-rule:nonzero;stroke:none"
               d="m 16300,14339.5 -1113.5,28.9 c 117.3,393.7 413.7,713.5 791.4,860.3 166.1,-264 278.2,-565.2 322.1,-889.2 m -3683.9,95.3 -922.6,23.9 c 57.1,222 145.8,432.2 260.9,625.4 295.6,-129.3 531.5,-360.5 661.7,-649.3 m 1291.9,708.9 c -522.5,0 -973,302.6 -1178.4,744.5 372.1,241.4 813,384.9 1283.4,392.2 12.4,0.1 25,0.2 37.4,0.2 404,0 781.1,-101.6 1107.4,-280.4 -187.4,-488.1 -659.7,-842.5 -1216.8,-856.1 -11,-0.3 -22.1,-0.4 -33,-0.4" /></g></g></g><g
         id="g186"><g
           clip-path="url(#clipPath192)"
           id="g188"><g
             transform="scale(1.8436)"
             id="g194"><path
               id="path202"
               style="fill:url(#linearGradient200);fill-opacity:1;fill-rule:nonzero;stroke:none"
               d="m 16195.3,12742.7 -461.9,12 c -92.3,516.4 -534,901.3 -1073.7,901.3 -1.5,0 -2.9,0 -4.5,0 -7.3,0 -14.8,-0.1 -22.2,-0.3 -135.5,-3.2 -265.6,-30.3 -386.4,-77.2 -336.8,-130.9 -601.1,-416.1 -705.7,-767.1 l -2291.9,59.3 c -116.1,257.5 -326.4,463.6 -590,578.9 -127.2,55.7 -266.9,90.1 -414.3,98.8 -24.8,1.5 -49.7,2.2 -74.9,2.2 -9.9,0 -19.9,-0.1 -30,-0.3 -40.1,-0.9 -79.9,-3.8 -119.1,-8.4 -404.3,-47.3 -753.4,-284.3 -948.62,-614.9 l -623.4,16.1 c 305.33,1855.1 1919.62,3283.4 3832.82,3354.1 49.4,1.9 99.1,2.8 148.8,2.8 2052.6,0 3674.6,-1577.4 3765,-3557.3 m -4845.1,1423.8 c 183.2,-393.9 584.8,-663.8 1050.7,-663.8 9.8,0 19.6,0.1 29.4,0.4 496.8,12.1 917.9,328.1 1085,763.3 48.7,126.7 75.8,263.7 77,406.1 0,3.1 0,6.2 0,9.4 0,633.7 -514.6,1145.7 -1157,1145.7 -1.6,0 -3.3,0 -5,0 -48.6,-0.2 -96.6,-3.4 -143.7,-9.2 -584.9,-73 -1042.2,-569.8 -1042.2,-1169.9 0,-25.4 0.8,-50.5 2.4,-75.4 9.3,-144.8 45.4,-281.9 103.4,-406.6" /></g></g></g><g
         id="g204"><g
           clip-path="url(#clipPath210)"
           id="g206"><g
             transform="scale(1.93841)"
             id="g212"><path
               id="path220"
               style="fill:url(#linearGradient218);fill-opacity:1;fill-rule:nonzero;stroke:none"
               d="m 15966.4,4372.55 h -987.2 -11411.85 -42.94 c -126.54,0 -230.09,103.44 -230.09,229.88 l -2.97,125.82 -125.78,5319.45 -36.26,1533.5 -3.51,148.6 -2.34,99 c -3.76,158.6 57.77,311.8 170.21,423.9 78.37,78.1 176.7,131.5 282.87,155.2 41.32,9.3 83.83,14.1 126.81,14.1 2.23,0 4.46,0 6.69,-0.1 2.79,0 5.57,-0.1 8.36,-0.1 l 1131.08,-29.3 44.63,-1.2 2296.52,-59.3 563.5,-14.6 281.32,-7.3 592.91,-15.4 885.26,-22.9 402.8,-10.4 782.38,-20.2 2179.8,-56.4 944.3,-24.5 372.2,-9.6 484.9,-12.6 283.9,-7.3 439.3,-11.4 474.9,-12.3 c 9.8,0.7 19.4,1 28.8,1 254.6,0 393.1,-233.7 393.1,-355.6 l -78.3,-5407.2 -25.2,-1742.87 c 0,-126.44 -103.6,-229.88 -230.1,-229.88 m -300.1,232.72 v 0 c 119.7,0 217.7,97.96 217.7,217.65 l 97.7,6490.88 c -11.2,379.8 -335.3,523.1 -544.1,523.1 -5.9,0 -11.7,-0.1 -17.4,-0.4 l -11653.98,312.7 c -3.64,0.1 -7.29,0.1 -10.91,0.1 -107.66,0 -211.06,-42.7 -287.49,-118.9 -79.01,-78.8 -122.46,-186.7 -119.66,-298.2 l 173.32,-6909.28 c 0,-102.04 71.19,-188.3 166.35,-211.51 v -6.14 H 15666.3" /></g></g></g><g
         id="g222"><g
           clip-path="url(#clipPath228)"
           id="g224"><g
             transform="scale(1.90056)"
             id="g230"><path
               id="path238"
               style="fill:url(#linearGradient236);fill-opacity:1;fill-rule:nonzero;stroke:none"
               d="m 15978.4,4696.99 v 0 l -2.5,6488.31 c -0.1,318.8 -254.3,579.5 -573,587.8 l -11028.78,286.5 c -5.31,0.1 -10.55,0.2 -15.84,0.2 -328.65,0 -597,-266.6 -597,-597.3 V 4703.25 c -97.06,23.68 -169.67,111.65 -169.67,215.73 l -176.77,7046.92 c -2.85,113.7 41.46,223.7 122.05,304.1 77.95,77.7 183.41,121.3 293.21,121.3 3.7,0 7.42,0 11.13,-0.2 l 11886.07,-318.9 c 5.8,0.3 11.8,0.4 17.8,0.4 212.9,0 543.5,-146.1 554.9,-533.5 l -99.7,-6620.12 c 0,-122.07 -99.9,-221.99 -221.9,-221.99" /></g></g></g><g
         transform="scale(1.87836)"
         id="g240"><path
           id="path242"
           style="fill:#ffffff;fill-opacity:1;fill-rule:nonzero;stroke:none"
           d="m 16258.8,8159.37 h -0.4 c -18.2,0.27 -32.8,15.17 -32.5,33.38 l 8,543.24 c 0.2,18 14.9,32.42 32.9,32.42 h 0.5 c 18.2,-0.26 32.7,-15.22 32.4,-33.38 l -8,-543.24 c -0.2,-17.99 -14.9,-32.42 -32.9,-32.42" /></g><g
         transform="scale(1.88318)"
         id="g244"><path
           id="path246"
           style="fill:#ffffff;fill-opacity:1;fill-rule:nonzero;stroke:none"
           d="m 16236.7,9466.23 h -0.5 c -18.1,0.27 -32.6,15.24 -32.3,33.35 l 30.4,2075.22 c -0.5,123.3 -38,221.7 -111.2,291.9 -136.7,130.9 -353.7,124.3 -362.9,123.8 l -3834.1,102.9 c -18.1,0.4 -32.4,15.5 -31.9,33.7 0.5,18.1 14.4,33.5 33.7,31.9 l 3831.8,-102.8 c 23.9,1.4 254.9,5.4 408.8,-142.1 86.6,-82.9 130.9,-197.2 131.5,-339.6 l -30.5,-2075.93 c -0.2,-17.95 -14.9,-32.34 -32.8,-32.34" /></g><g
         id="g248"><g
           clip-path="url(#clipPath254)"
           id="g250"><g
             transform="scale(2.01613)"
             id="g256"><path
               id="path264"
               style="fill:url(#linearGradient262);fill-opacity:1;fill-rule:nonzero;stroke:none"
               d="M 2224.93,3633.34 H 16271.9 c 15.5,0 28.1,12.6 28.1,28.02 v 547.93 c 0,15.43 -12.6,28.03 -28.1,28.03 H 2224.93 c -15.42,0 -28.04,-12.6 -28.04,-28.03 v -547.93 c 0,-15.42 12.62,-28.02 28.04,-28.02" /></g></g></g><g
         id="g266"><g
           clip-path="url(#clipPath272)"
           id="g268"><g
             transform="scale(1.86306)"
             id="g274"><path
               id="path282"
               style="fill:url(#linearGradient280);fill-opacity:1;fill-rule:nonzero;stroke:none"
               d="M 16300,4791.54 H 3837 v 6.39 c 17.14,-4.19 35.01,-6.39 53.38,-6.39 H 16300" /></g></g></g><g
         id="g284"><g
           clip-path="url(#clipPath290)"
           id="g286"><g
             transform="scale(1.86306)"
             id="g292"><path
               id="path300"
               style="fill:url(#linearGradient298);fill-opacity:1;fill-rule:nonzero;stroke:none"
               d="M 16300,4791.54 H 3890.38 c -18.37,0 -36.24,2.2 -53.38,6.39 v 6895.27 c 0,337.4 273.75,609.4 609.02,609.4 5.38,0 10.73,-0.1 16.15,-0.2 L 15713,12010.1 c 325.1,-8.5 584.4,-274.4 584.5,-599.6 l 2.5,-6618.96 M 4203.43,5423.67 c -54.95,0 -98.01,-47.45 -92.52,-102.25 l 5.21,-51.9 c 4.76,-47.51 44.76,-83.74 92.53,-83.74 h 5026.4 c 51.36,0 93.01,41.65 93.01,93.02 0,50.99 -41.06,92.48 -92.05,93.02 l -5031.6,51.85 c -0.33,0 -0.65,0 -0.98,0 m 9016.67,-96.56 c -16.9,0 -30.3,-19.59 -28.5,-42.24 l 1.5,-21.47 c 1.5,-19.65 13.9,-34.57 28.6,-34.57 h 1553.1 c 15.9,0 28.7,17.18 28.7,38.43 0,21.04 -12.6,38.22 -28.4,38.43 l -1554.7,21.42 c -0.1,0 -0.2,0 -0.3,0 m 55.4,167.36 c -27.2,0 -48.5,-14.65 -45.7,-31.61 l 2.6,-16 c 2.3,-14.71 22,-25.87 45.6,-25.87 h 2482.7 c 25.3,0 45.9,12.83 45.9,28.72 0,15.77 -20.3,28.55 -45.5,28.71 l -2485.2,16.05 c -0.1,0 -0.3,0 -0.4,0 m -9072.07,429.78 c -54.95,0 -98.01,-47.45 -92.52,-102.31 l 5.21,-51.85 c 4.76,-47.5 44.76,-83.73 92.53,-83.73 h 5026.4 c 51.36,0 93.01,41.65 93.01,93.02 0,50.99 -41.06,92.48 -92.05,92.96 l -5031.6,51.91 c -0.33,0 -0.65,0 -0.98,0 m 178.63,523.33 c -87.57,0 -156.19,-47.45 -147.44,-102.25 l 8.3,-51.9 c 7.59,-47.51 71.34,-83.68 147.48,-83.68 h 8010.8 c 81.8,0 148.2,41.6 148.2,92.96 0,50.99 -65.4,92.49 -146.7,93.02 l -8019.06,51.85 c -0.53,0 -1.06,0 -1.58,0 m 8863.04,1096.21 c -15.6,0 -27.9,-18.14 -26.4,-39.02 l 1.5,-19.81 c 1.4,-18.14 12.8,-31.99 26.4,-31.99 h 1434.2 c 14.6,0 26.5,15.94 26.5,35.54 0,19.43 -11.7,35.26 -26.2,35.48 l -1435.7,19.8 c -0.1,0 -0.2,0 -0.3,0 m 51.1,154.53 c -25,0 -44.7,-13.52 -42.2,-29.2 l 2.4,-14.81 c 2.2,-13.53 20.4,-23.89 42.2,-23.89 h 2292.6 c 23.4,0 42.4,11.92 42.4,26.57 0,14.55 -18.7,26.36 -42,26.52 l -2294.9,14.81 c -0.2,0 -0.3,0 -0.5,0 m -77,2058.72 c -15.7,0 -28,-18.14 -26.4,-39.02 l 1.5,-19.81 c 1.4,-18.14 12.8,-31.99 26.4,-31.99 h 1434.2 c 14.7,0 26.5,15.89 26.5,35.53 0,19.43 -11.7,35.27 -26.2,35.48 l -1435.7,19.81 c -0.1,0 -0.2,0 -0.3,0 m 51.1,154.53 c -25,0 -44.7,-13.53 -42.2,-29.2 l 2.4,-14.81 c 2.2,-13.53 20.4,-23.89 42.2,-23.89 h 2292.6 c 23.4,0 42.4,11.92 42.4,26.57 0,14.55 -18.7,26.35 -42,26.51 l -2294.9,14.82 c -0.2,0 -0.3,0 -0.5,0" /></g></g></g><g
         id="g302"><g
           clip-path="url(#clipPath308)"
           id="g304"><g
             transform="scale(1.43437)"
             id="g310"><path
               id="path318"
               style="fill:url(#linearGradient316);fill-opacity:1;fill-rule:nonzero;stroke:none"
               d="M 16107.5,8065.64 H 5702.55 c -98.9,0 -181.7,46.99 -191.56,108.69 l -10.77,67.42 c -11.37,71.18 77.76,132.81 191.5,132.81 0.68,0 1.37,0 2.05,0 l 10415.73,-67.35 c 105.5,-0.69 190.5,-54.59 190.5,-120.82 0,-66.72 -86.2,-120.75 -192.5,-120.75" /></g></g></g><g
         id="g320"><g
           clip-path="url(#clipPath326)"
           id="g322"><g
             transform="scale(1.06618)"
             id="g328"><path
               id="path336"
               style="fill:url(#linearGradient334);fill-opacity:1;fill-rule:nonzero;stroke:none"
               d="M 16137.5,9936.43 H 7354.26 c -83.48,0 -153.38,63.31 -161.7,146.27 l -9.09,90.7 c -9.59,95.8 65.65,178.7 161.66,178.7 0.58,0 1.15,0 1.72,0 l 8792.25,-90.7 c 89.1,-0.8 160.9,-73.3 160.9,-162.4 0,-89.8 -72.8,-162.57 -162.5,-162.57" /></g></g></g><g
         id="g338"><g
           clip-path="url(#clipPath344)"
           id="g340"><g
             transform="scale(1.06618)"
             id="g346"><path
               id="path354"
               style="fill:url(#linearGradient352);fill-opacity:1;fill-rule:nonzero;stroke:none"
               d="M 16137.5,9061.71 H 7354.26 c -83.48,0 -153.38,63.31 -161.7,146.32 l -9.09,90.7 c -9.59,95.77 65.65,178.68 161.66,178.68 0.58,0 1.15,0 1.72,0 l 8792.25,-90.61 c 89.1,-0.94 160.9,-73.44 160.9,-162.54 0,-89.76 -72.8,-162.55 -162.5,-162.55" /></g></g></g><g
         id="g356"><g
           clip-path="url(#clipPath362)"
           id="g358"><path
             id="path370"
             style="fill:url(#linearGradient368);fill-opacity:1;fill-rule:nonzero;stroke:none"
             d="m 13881.8,11633.7 c -11,143.8 -24.4,289.5 -37.3,435.8 l -5781.49,95.2 c -103.24,1.7 -184.49,-140.3 -174.19,-304.5 l 9.68,-154.5 c 8.88,-141.5 83.41,-249.3 172.4,-249.3 H 13898 c -6.2,62.1 -12,121.8 -16.2,177.3" /></g></g><path
         id="path372"
         style="fill:#ffffff;fill-opacity:1;fill-rule:nonzero;stroke:none"
         d="m 14241.5,11769.7 c 0,-173 -140.3,-313.3 -313.4,-313.3 -173,0 -313.3,140.3 -313.3,313.3 0,173.1 140.3,313.3 313.3,313.3 173.1,0 313.4,-140.2 313.4,-313.3" /><g
         id="g374"><g
           clip-path="url(#clipPath380)"
           id="g376"><g
             transform="scale(1.43722)"
             id="g382"><path
               id="path390"
               style="fill:url(#linearGradient388);fill-opacity:1;fill-rule:nonzero;stroke:none"
               d="M 15918.3,8791.55 H 5710.03 c -210.81,0 -381.7,170.96 -381.7,381.71 v 5871.24 c 0,213.7 175.4,385.8 389.05,381.6 l 10208.32,-196.7 c 207.9,-4 374.3,-173.7 374.3,-381.6 V 9173.26 c 0,-210.75 -170.9,-381.71 -381.7,-381.71" /></g></g></g><g
         transform="scale(1.14207)"
         id="g392"><path
           id="path394"
           style="fill:#ffffff;fill-opacity:1;fill-rule:evenodd;stroke:none"
           d="m 13335.2,14130 v 1849.8 c 0,197.7 215.1,320.2 385.2,219.3 l 1558.7,-924.9 c 166.5,-98.8 166.5,-339.8 0,-438.6 l -1558.7,-925 c -170.1,-100.8 -385.2,21.7 -385.2,219.4" /></g><g
         id="g396"><g
           clip-path="url(#clipPath402)"
           id="g398"><g
             transform="scale(1.80426)"
             id="g404"><path
               id="path412"
               style="fill:url(#linearGradient410);fill-opacity:1;fill-rule:nonzero;stroke:none"
               d="m 16206,10448.4 h -2512.5 c -51.9,0 -93.9,42.1 -93.9,93.9 v 1445.1 c 0,52.6 43.1,95 95.7,93.9 l 2512.5,-48.4 c 51.2,-1 92.2,-42.8 92.2,-93.9 v -1396.7 c 0,-51.8 -42.1,-93.9 -94,-93.9" /></g></g></g><g
         transform="scale(1.69456)"
         id="g414"><path
           id="path416"
           style="fill:#ffffff;fill-opacity:1;fill-rule:evenodd;stroke:none"
           d="m 15860.5,11763.3 v 385.2 c 0,41.2 44.8,66.7 80.2,45.7 l 324.7,-192.6 c 34.6,-20.5 34.6,-70.8 0,-91.4 l -324.7,-192.6 c -35.4,-20.9 -80.2,4.6 -80.2,45.7" /></g><g
         id="g418"><g
           clip-path="url(#clipPath424)"
           id="g420"><g
             transform="scale(1.80666)"
             id="g426"><path
               id="path434"
               style="fill:url(#linearGradient432);fill-opacity:1;fill-rule:nonzero;stroke:none"
               d="M 16206.2,8122.8 H 13697 c -51.8,0 -93.8,42.01 -93.8,93.82 v 1443.1 c 0,52.53 43.1,94.82 95.6,93.82 l 2509.2,-48.37 c 51.1,-0.95 92,-42.68 92,-93.77 V 8216.62 c 0,-51.81 -42,-93.82 -93.8,-93.82" /></g></g></g><g
         transform="scale(1.69696)"
         id="g436"><path
           id="path438"
           style="fill:#ffffff;fill-opacity:1;fill-rule:evenodd;stroke:none"
           d="m 15861.2,9285.47 v 384.69 c 0,41.07 44.7,66.59 80,45.61 l 324.2,-192.34 c 34.6,-20.57 34.6,-70.66 0,-91.23 l -324.2,-192.34 c -35.3,-20.98 -80,4.54 -80,45.61" /></g><g
         id="g440"><g
           clip-path="url(#clipPath446)"
           id="g442"><g
             transform="scale(1.80666)"
             id="g448"><path
               id="path456"
               style="fill:url(#linearGradient454);fill-opacity:1;fill-rule:nonzero;stroke:none"
               d="m 16252.7,5590.22 h -2560.2 c -24.3,0 -44.7,11.51 -47.1,26.68 l -2.6,16.49 c -2.9,17.49 19.1,32.6 47.1,32.6 0.1,0 0.3,0 0.5,0 l 2562.7,-16.55 c 26,-0.16 46.9,-13.34 46.9,-29.61 0,-16.39 -21.2,-29.61 -47.3,-29.61" /></g></g></g><g
         id="g458"><g
           clip-path="url(#clipPath464)"
           id="g460"><g
             transform="scale(1.69201)"
             id="g466"><path
               id="path474"
               style="fill:url(#linearGradient472);fill-opacity:1;fill-rule:nonzero;stroke:none"
               d="m 16268.4,5757.41 h -1710.1 c -16.3,0 -29.9,16.42 -31.5,38.06 l -1.7,23.64 c -1.9,24.94 12.7,46.51 31.4,46.51 0.1,0 0.2,0 0.4,0 l 1711.8,-23.58 c 17.4,-0.24 31.3,-19.15 31.3,-42.32 0,-23.4 -14.2,-42.31 -31.6,-42.31" /></g></g></g><g
         id="g476"><g
           clip-path="url(#clipPath482)"
           id="g478"><g
             transform="scale(1.62603)"
             id="g484"><path
               id="path492"
               style="fill:url(#linearGradient490);fill-opacity:1;fill-rule:nonzero;stroke:none"
               d="m 16296.9,6223.44 c -2.1,27.36 -4.6,55.04 -7,82.84 l -1098.7,18.08 c -19.6,0.37 -35,-26.63 -33.1,-57.87 l 1.9,-29.34 c 1.6,-26.87 15.9,-47.35 32.8,-47.35 H 16300 c -1.2,11.8 -2.3,23.12 -3.1,33.64" /></g></g></g><g
         transform="scale(1.63255)"
         id="g494"><path
           id="path496"
           style="fill:#ffffff;fill-opacity:1;fill-rule:nonzero;stroke:none"
           d="m 16300,6224.39 c 0,-32.77 -26.6,-59.3 -59.3,-59.3 -32.8,0 -59.3,26.53 -59.3,59.3 0,32.71 26.5,59.29 59.3,59.29 32.7,0 59.3,-26.58 59.3,-59.29" /></g><g
         id="g498"><g
           clip-path="url(#clipPath504)"
           id="g500"><g
             transform="scale(1.80666)"
             id="g506"><path
               id="path514"
               style="fill:url(#linearGradient512);fill-opacity:1;fill-rule:nonzero;stroke:none"
               d="M 16206.2,5810.79 H 13697 c -51.8,0 -93.8,41.95 -93.8,93.82 v 1443.11 c 0,52.52 43.1,94.81 95.6,93.82 l 2509.2,-48.38 c 51.1,-0.94 92,-42.68 92,-93.76 V 5904.61 c 0,-51.87 -42,-93.82 -93.8,-93.82" /></g></g></g><g
         transform="scale(1.69696)"
         id="g516"><path
           id="path518"
           style="fill:#ffffff;fill-opacity:1;fill-rule:evenodd;stroke:none"
           d="m 15861.2,6824.01 v 384.69 c 0,41.08 44.7,66.59 80,45.61 l 324.2,-192.34 c 34.6,-20.57 34.6,-70.66 0,-91.22 l -324.2,-192.35 c -35.3,-20.97 -80,4.48 -80,45.61" /></g><g
         id="g520"><g
           clip-path="url(#clipPath526)"
           id="g522"><g
             transform="scale(1.78689)"
             id="g528"><path
               id="path536"
               style="fill:url(#linearGradient534);fill-opacity:1;fill-rule:nonzero;stroke:none"
               d="m 16255.7,7955.67 h -2390.3 c -22.7,0 -41.7,10.8 -44,24.9 l -2.4,15.45 c -2.6,16.34 17.8,30.44 44,30.44 0.1,0 0.3,0 0.4,0 l 2392.8,-15.44 c 24.3,-0.17 43.8,-12.48 43.8,-27.65 0,-15.28 -19.8,-27.7 -44.3,-27.7" /></g></g></g><g
         id="g538"><g
           clip-path="url(#clipPath544)"
           id="g540"><g
             transform="scale(1.68102)"
             id="g546"><path
               id="path554"
               style="fill:url(#linearGradient552);fill-opacity:1;fill-rule:nonzero;stroke:none"
               d="m 16270.6,8260.05 h -1589.5 c -15.1,0 -27.8,15.35 -29.3,35.46 l -1.6,21.95 c -1.8,23.14 11.9,43.25 29.2,43.25 0.2,0 0.2,0 0.3,0 l 1591.2,-21.95 c 16.1,-0.24 29.1,-17.79 29.1,-39.33 0,-21.71 -13.2,-39.38 -29.4,-39.38" /></g></g></g><g
         id="g556"><g
           clip-path="url(#clipPath562)"
           id="g558"><g
             transform="scale(1.62009)"
             id="g564"><path
               id="path572"
               style="fill:url(#linearGradient570);fill-opacity:1;fill-rule:nonzero;stroke:none"
               d="m 16297.2,8786.2 c -2,25.31 -4.4,50.98 -6.6,76.73 l -1018.3,16.78 c -18.1,0.31 -32.4,-24.75 -30.6,-53.64 l 1.7,-27.22 c 1.5,-24.87 14.7,-43.88 30.4,-43.88 H 16300 c -1,10.92 -2.1,21.42 -2.8,31.23" /></g></g></g><g
         transform="scale(1.6261)"
         id="g574"><path
           id="path576"
           style="fill:#ffffff;fill-opacity:1;fill-rule:nonzero;stroke:none"
           d="m 16300,8777.58 c 0,-30.38 -24.6,-54.98 -55,-54.98 -30.3,0 -55,24.6 -55,54.98 0,30.38 24.7,54.97 55,54.97 30.4,0 55,-24.59 55,-54.97" /></g><g
         id="g578"><g
           clip-path="url(#clipPath584)"
           id="g580"><g
             transform="scale(1.78393)"
             id="g586"><path
               id="path594"
               style="fill:url(#linearGradient592);fill-opacity:1;fill-rule:nonzero;stroke:none"
               d="m 16255.7,10280.3 h -2394.3 c -22.7,0 -41.8,10.8 -44.1,24.9 l -2.4,15.5 c -2.7,16.4 17.9,30.5 44,30.5 0.2,0 0.4,0 0.5,0 l 2396.8,-15.5 c 24.2,-0.1 43.8,-12.5 43.8,-27.7 0,-15.3 -19.8,-27.7 -44.3,-27.7" /></g></g></g><g
         id="g596"><g
           clip-path="url(#clipPath602)"
           id="g598"><g
             transform="scale(1.67806)"
             id="g604"><path
               id="path612"
               style="fill:url(#linearGradient610);fill-opacity:1;fill-rule:nonzero;stroke:none"
               d="m 16270.6,10731.9 h -1592.4 c -15.1,0 -27.7,15.4 -29.3,35.5 l -1.6,22 c -1.8,23.2 11.9,43.3 29.3,43.3 0.1,0 0.2,0 0.3,0 l 1594,-22 c 16.1,-0.2 29.1,-17.8 29.1,-39.4 0,-21.8 -13.2,-39.4 -29.4,-39.4" /></g></g></g><g
         id="g614"><g
           clip-path="url(#clipPath620)"
           id="g616"><g
             transform="scale(1.61713)"
             id="g622"><path
               id="path630"
               style="fill:url(#linearGradient628);fill-opacity:1;fill-rule:nonzero;stroke:none"
               d="m 16297.1,11352.1 c -1.9,25.3 -4.3,51.1 -6.6,76.9 l -1020,16.8 c -18.3,0.3 -32.6,-24.8 -30.8,-53.8 l 1.7,-27.2 c 1.6,-25 14.7,-44 30.4,-44 H 16300 c -1.1,11 -2.1,21.5 -2.9,31.3" /></g></g></g><g
         transform="scale(1.62314)"
         id="g632"><path
           id="path634"
           style="fill:#ffffff;fill-opacity:1;fill-rule:nonzero;stroke:none"
           d="m 16300,11334 c 0,-30.5 -24.7,-55.1 -55.1,-55.1 -30.4,0 -55.1,24.6 -55.1,55.1 0,30.4 24.7,55 55.1,55 30.4,0 55.1,-24.6 55.1,-55" /></g><g
         id="g636"><g
           clip-path="url(#clipPath642)"
           id="g638"><path
             id="path650"
             style="fill:url(#linearGradient648);fill-opacity:1;fill-rule:nonzero;stroke:none"
             d="m 5569.52,14999.1 c 0,0 -1207.7,-669 -1307.61,-1801.3 -99.92,-1132.3 -8.32,-5831.9 2413.42,-6988.6 2421.74,-1156.7 5627.27,-890.1 6854.37,-763.6 1227,126.4 1907.3,960.3 2059.3,1534.5 152,574.1 397.4,2713 -893.4,3402.9 -1290.8,689.9 -2646.5,1746.9 -4001.2,2776.1 -1354.69,1029.2 -3676.33,2709.3 -5124.88,1840" /></g></g><g
         id="g652"><g
           clip-path="url(#clipPath658)"
           id="g654"><path
             id="path666"
             style="fill:url(#linearGradient664);fill-opacity:1;fill-rule:nonzero;stroke:none"
             d="m 14315,9992.7 c 0,0 -326,-17.3 -365.9,-687.9 0,0 755.8,-677.5 1776.8,-838.8 76.6,-12.1 -107.2,523.2 -134.8,595.7 -131.5,345.1 -545.5,567.3 -1276.1,931" /></g></g><g
         id="g668"><g
           clip-path="url(#clipPath674)"
           id="g670"><path
             id="path682"
             style="fill:url(#linearGradient680);fill-opacity:1;fill-rule:nonzero;stroke:none"
             d="m 10644.1,10781.2 h 687.8 c 0,0 2111.2,2331.5 3495.8,2566.8 0,0 963.9,-1230.4 -51.3,-3529.3 -81.7,-184.9 -310.1,-267 -480.4,-158.2 -51,32.5 -87.6,76.2 -109.8,130.8 l 81.6,1962.9 c 0,0 -1800.8,-1575 -2113.8,-1879 -313,-303.9 -1904.1,-118.7 -1509.9,906" /></g></g><g
         id="g684"><g
           clip-path="url(#clipPath690)"
           id="g686"><g
             transform="scale(1.06153)"
             id="g692"><path
               id="path700"
               style="fill:url(#linearGradient698);fill-opacity:1;fill-rule:nonzero;stroke:none"
               d="m 16291.6,5544.72 c -271.6,237.86 -704.2,504.92 -1328.8,581.42 l -211.2,-129.16 c 0,0 134.7,-198.67 380.8,-408.56 226.1,-131.31 575.3,-309.27 864.8,-347.79 281.4,-37.5 323,132.54 294.4,304.09" /></g></g></g><g
         id="g702"><g
           clip-path="url(#clipPath708)"
           id="g704"><path
             id="path718"
             style="fill:url(#linearGradient716);fill-opacity:1;fill-rule:nonzero;stroke:none"
             d="m 15591.1,9061.7 c -177.6,-57.4 -255.7,-309 -706.3,-142.7 -435.9,161 -760,368.6 -926.7,488.3 -3.7,-32.5 -6.9,-66.4 -9,-102.5 0,0 796.9,-758 1817.9,-919.3 76.6,-12.1 137.4,64.4 109.7,136.9 -49.5,130.1 -138.9,327.5 -285.6,539.3" /></g></g><g
         id="g720"><g
           clip-path="url(#clipPath726)"
           id="g722"><g
             transform="scale(1.07663)"
             id="g728"><path
               id="path738"
               style="fill:url(#linearGradient736);fill-opacity:1;fill-rule:nonzero;stroke:none"
               d="m 16264.9,5266.64 c -52.8,60 -120.2,128.83 -201.7,200.35 28.2,-169.14 -12.8,-336.79 -290.2,-299.83 -285.5,37.99 -629.8,213.45 -852.8,342.93 279.5,-238.34 704.7,-491.35 1241.4,-476.49 119.2,3.34 182.1,143.5 103.3,233.04" /></g></g></g><g
         id="g740"><g
           clip-path="url(#clipPath746)"
           id="g742"><path
             id="path754"
             style="fill:url(#linearGradient752);fill-opacity:1;fill-rule:nonzero;stroke:none"
             d="m 10669.2,10283.5 3221.2,-34.9 c 0,0 1839.4,-1521.9 2173.1,-3842.6 0,0 55.4,-170.7 -277.1,-199.9 0,0 -1112.2,726.4 -1837.3,2010.6 -889.2,1574.6 -2650.7,865.8 -2650.7,865.8 -578.8,417.3 -1396.69,502.3 -2012.84,641.3 l 1383.64,559.7" /></g></g><g
         id="g756"><g
           clip-path="url(#clipPath762)"
           id="g758"><path
             id="path770"
             style="fill:url(#linearGradient768);fill-opacity:1;fill-rule:nonzero;stroke:none"
             d="m 10745.3,12878.2 c 0,0 346.8,-1737.8 2045.8,-2425.3 l 604.3,71.3 142.7,-227.4 -1417.7,-45.2 c 0,0 -1211.8,480 -1853.8,1787.8 -21.2,43.2 -374.75,773.2 478.7,838.8" /></g></g><g
         id="g772"><g
           clip-path="url(#clipPath778)"
           id="g774"><path
             id="path788"
             style="fill:url(#linearGradient786);fill-opacity:1;fill-rule:nonzero;stroke:none"
             d="m 10931.1,10311.9 c 0,0 -394.3,1071.8 -479,2113.4 0,0 288.4,247.9 468.7,354.8 58.4,34.7 80.5,108 51,169.1 -132.6,274.6 -934.3,1352.9 -994.33,1367.9 -326.42,81.5 -1665.09,718 -2607.91,-571.7 -404.62,-553.4 80.3,-2257.2 1916,-4021.6 l 378.71,-72.4 1266.83,660.5" /></g></g><g
         id="g790"><g
           clip-path="url(#clipPath796)"
           id="g792"><path
             id="path804"
             style="fill:url(#linearGradient802);fill-opacity:1;fill-rule:nonzero;stroke:none"
             d="m 9411.69,12190.4 c 0,0 1095.51,-1297.2 2496.21,-1486.8 0,0 362,330 631.2,212.2 269.2,-117.9 638.2,-637.9 638.2,-637.9 h -1798.4 c 0,0 -1700.54,59.9 -2550.28,1091.1 68.38,360.8 273.14,576.3 583.07,821.4" /></g></g><g
         id="g806"><g
           clip-path="url(#clipPath812)"
           id="g808"><path
             id="path820"
             style="fill:url(#linearGradient818);fill-opacity:1;fill-rule:nonzero;stroke:none"
             d="m 8772.57,15227 -239.7,-799.5 c -10.99,-36.7 2.57,-76.3 34.13,-97.9 115.41,-79.1 417.04,-236.3 830.83,-83.5 47.32,17.5 79.75,61.7 83.85,111.9 l 56.83,696.5 -765.94,172.5" /></g></g><g
         id="g822"><g
           clip-path="url(#clipPath828)"
           id="g824"><g
             transform="scale(1.01599)"
             id="g830"><path
               id="path838"
               style="fill:url(#linearGradient836);fill-opacity:1;fill-rule:nonzero;stroke:none"
               d="m 9628.59,16300 c 0,0 424.51,-706.2 339.54,-1098.5 -84.84,-392.3 -677.77,-630.9 -1225.66,-283.7 l -344.39,1075.1 1230.51,307.1" /></g></g></g><g
         id="g840"><g
           clip-path="url(#clipPath846)"
           id="g842"><g
             transform="scale(1.06209)"
             id="g848"><path
               id="path856"
               style="fill:url(#linearGradient854);fill-opacity:1;fill-rule:nonzero;stroke:none"
               d="m 8409.75,14765.8 c 22.33,8.6 31.64,35 19.45,55.6 -37.02,62.8 -105.99,190.4 -124.79,300.3 0,0 -86.78,61.4 233.74,122.6 320.51,61.2 798.7,157.1 910.52,422.3 109.03,258.7 -114.91,932.1 -545.38,423.6 -16.37,-19.3 -46.67,-18.3 -61.17,2.5 -62.57,89.7 -229.27,277.6 -477.32,179.8 -232.12,-91.5 -265.44,-256.9 -266.19,-341.1 -0.23,-24.8 -23.2,-42.9 -47.27,-37.2 -113.96,27.3 -388.98,58.8 -530.85,-218.3 -116.84,-228.2 -54,-363.3 5.79,-430.7 19.39,-21.9 8.87,-55.9 -19.41,-63.2 -76.63,-19.6 -177.16,-79.2 -175.58,-256.7 2.19,-245.3 276.82,-236.4 355.24,-228.8 12.85,1.2 25.5,-3.7 33.71,-13.7 63.39,-77 349.83,-404.9 673.82,-457.7 28.05,-4.6 51.2,22.2 43.2,49.5 l -122.03,416.3 c -5.67,19.3 4.41,39.8 23.18,47.1 l 71.34,27.8" /></g></g></g><g
         id="g858"><g
           clip-path="url(#clipPath864)"
           id="g860"><path
             id="path872"
             style="fill:url(#linearGradient870);fill-opacity:1;fill-rule:nonzero;stroke:none"
             d="m 8989.21,15617.9 c 0,0 -364.21,275.5 -401.75,59.4 -37.52,-216 324.18,-330.4 509.31,-257.8 l -107.56,198.4" /></g></g><g
         id="g874"><g
           clip-path="url(#clipPath880)"
           id="g876"><path
             id="path888"
             style="fill:url(#linearGradient886);fill-opacity:1;fill-rule:nonzero;stroke:none"
             d="m 13086.8,10177.2 807.5,2692.9 c 33,109.9 130.5,187.8 245,195.7 l 1090.2,74.6 c 110.8,7.6 193.3,-100.7 156.5,-205.5 l -902.8,-2571.7 c -29,-82.9 -103.4,-141.5 -190.8,-150.3 l -1073.6,-119.2 -132,83.5" /></g></g><g
         id="g890"><g
           clip-path="url(#clipPath896)"
           id="g892"><path
             id="path904"
             style="fill:url(#linearGradient902);fill-opacity:1;fill-rule:nonzero;stroke:none"
             d="m 14576.1,11957.4 c -60.3,-121.7 -164.4,-192.9 -232.6,-159.2 -68.1,33.8 -74.5,159.8 -14.2,281.5 60.3,121.7 164.4,193 232.5,159.2 68.2,-33.8 74.5,-159.8 14.3,-281.5" /></g></g><g
         id="g906"><g
           clip-path="url(#clipPath912)"
           id="g908"><path
             id="path920"
             style="fill:url(#linearGradient918);fill-opacity:1;fill-rule:nonzero;stroke:none"
             d="m 13218.8,10093.7 c -1.7,0 -3.5,0 -5.2,0.1 l -2287.6,115.7 c -56.6,2.8 -100.1,51 -97.3,107.5 2.9,56.6 51.3,101.1 107.6,97.2 l 2287.6,-115.6 c 56.6,-2.8 100.1,-51 97.2,-107.5 -2.7,-54.8 -48,-97.4 -102.3,-97.4" /></g></g><path
         id="path922"
         style="fill:#e78456;fill-opacity:1;fill-rule:nonzero;stroke:none"
         d="m 10452.1,12400 h -0.1 c -14,0 -25.3,11.4 -25.2,25.4 1.5,477 -182.6,1110.3 -184.5,1116.6 -3.9,13.4 3.8,27.5 17.2,31.4 13.4,3.8 27.5,-3.8 31.4,-17.2 1.9,-6.4 188.1,-646.8 186.4,-1131 0,-14 -11.3,-25.2 -25.2,-25.2" /><path
         id="path924"
         style="fill:#e78456;fill-opacity:1;fill-rule:nonzero;stroke:none"
         d="m 9411.72,12165.1 c -7.48,0 -14.86,3.3 -19.88,9.6 -5.04,6.4 -505.98,643.2 -678.38,1080.1 -5.14,13 1.24,27.7 14.23,32.8 12.99,5.3 27.71,-1.3 32.83,-14.2 169.7,-430 666.03,-1061 671.04,-1067.3 8.65,-11 6.77,-26.9 -4.17,-35.6 -4.65,-3.6 -10.18,-5.4 -15.67,-5.4" /><path
         id="path926"
         style="fill:#e78456;fill-opacity:1;fill-rule:nonzero;stroke:none"
         d="m 8710.13,11190.9 -18.8,8.1 c -726.23,310.9 -1174.45,1177.4 -1178.9,1186.1 -6.35,12.4 -1.4,27.7 11.04,34 12.45,6.4 27.64,1.4 34.01,-11 4.33,-8.5 436.9,-844 1135.06,-1154.4 l 71.18,100.6 c 8.06,11.4 23.86,14.1 35.25,6 11.41,-8 14.13,-23.8 6.05,-35.2 l -94.89,-134.2" /></g></g></svg>